<?xml version="1.0" encoding="utf-8"?>
<!-- Generator: Adobe Illustrator 17.0.0, SVG Export Plug-In . SVG Version: 6.00 Build 0)  -->
<!DOCTYPE svg PUBLIC "-//W3C//DTD SVG 1.1 Tiny//EN" "http://www.w3.org/Graphics/SVG/1.1/DTD/svg11-tiny.dtd">
<svg version="1.1" baseProfile="tiny" id="Layer_1" xmlns="http://www.w3.org/2000/svg" xmlns:xlink="http://www.w3.org/1999/xlink"
	 x="0px" y="0px" width="100px" height="100px" viewBox="0 0 100 100" xml:space="preserve">
<path fill="#231F20" d="M50,0C22.386,0,0,22.386,0,50s22.386,50,50,50s50-22.386,50-50S77.614,0,50,0z M73.324,73.009l-9.249,5.431
	l-1.707,1.104c0,0-0.707-1.405-1.007-1.812c0,0-3.218-7.136-12.067-11.559c-3.623,4.724-8.145,10.557-20.715,13.173l-1.713,0.4
	l-0.504-1.608L22.239,66.98l-0.902-2.316l2.512-0.301c0.405-0.098,9.054-1.309,13.074-9.557c0-0.195,0.099-0.699,0.303-2.309
	c0.504-6.337,2.314-13.479,8.646-17.803c-1.511-2.009-2.413-4.422-2.413-7.038c0-6.54,5.227-11.767,11.668-11.767
	c6.534,0,11.761,5.227,11.761,11.767c0,5.43-3.716,9.955-8.744,11.264c4.623,0.503,8.646-1.512,8.744-1.609l1.916-1.105l0.903,2.008
	l3.82,8.752l0.706,1.713l-1.511,0.799c-4.828,2.72-8.249,3.923-11.264,4.324c4.022,3.224,9.052,8.547,12.675,16.697l0.806,1.608
	L73.324,73.009z"/>
</svg>
