<?xml version="1.0" encoding="utf-8"?>
<!-- Generator: Adobe Illustrator 17.0.0, SVG Export Plug-In . SVG Version: 6.00 Build 0)  -->
<!DOCTYPE svg PUBLIC "-//W3C//DTD SVG 1.1 Tiny//EN" "http://www.w3.org/Graphics/SVG/1.1/DTD/svg11-tiny.dtd">
<svg version="1.1" baseProfile="tiny" id="Layer_1" xmlns="http://www.w3.org/2000/svg" xmlns:xlink="http://www.w3.org/1999/xlink"
	 x="0px" y="0px" width="100px" height="100px" viewBox="0 0 100 100" overflow="visible" xml:space="preserve">
<path fill="#231F20" d="M43.3,52.384c0,3.495,1.815,5.872,4.892,5.872c0.42,0,0.837-0.14,1.118-0.14
	c1.815-0.421,3.496-1.677,4.474-3.634c1.679-2.797,1.536-5.312,1.536-8.526v-1.679c-2.097,0-4.194,0.139-6.01,0.559
	C45.953,45.816,43.3,47.911,43.3,52.384z M50,0C22.386,0,0,22.386,0,50s22.386,50,50,50s50-22.386,50-50S77.614,0,50,0z
	 M53.205,30.857c-0.979-1.396-2.794-2.096-4.472-2.096c-0.28,0-0.419,0-0.562,0c-2.794,0.277-5.311,1.816-6.01,4.893
	c-0.139,0.698-0.558,1.396-1.397,1.535l-7.828-0.979c-0.559-0.139-1.398-0.557-1.118-1.675c1.676-8.809,9.226-11.885,16.354-12.302
	c0.562,0,1.119,0,1.68,0c3.915,0,8.945,1.119,12.162,4.054c3.913,3.633,3.492,8.527,3.492,13.837v12.582
	c0,3.775,1.54,5.453,3.075,7.409c0.421,0.697,0.562,1.538-0.141,2.097c-1.535,1.398-4.47,3.914-6.149,5.313
	c-0.559,0.417-1.258,0.417-1.957,0.138c-2.652-2.235-3.077-3.214-4.611-5.31c-2.658,2.794-4.893,4.332-7.551,5.172
	c-1.676,0.417-3.492,0.696-5.729,0.696c-6.711,0-12.022-4.193-12.022-12.44c0-6.57,3.495-11.043,8.668-13.14
	c2.653-1.26,5.871-1.816,9.084-2.236c2.099-0.281,4.195-0.419,6.012-0.558V36.73C54.184,34.772,54.324,32.536,53.205,30.857z
	 M77.376,73.167c-0.902,0.692-1.873,1.317-2.846,1.872c-7.278,4.367-16.709,6.657-24.892,6.657
	c-13.177,0-24.966-4.854-33.909-12.969c-0.761-0.624-0.137-1.526,0.762-1.04c9.639,5.617,21.566,9.016,33.911,9.016
	c7.766,0,16.156-1.458,24.129-4.576c0.556-0.21,1.18-0.487,1.735-0.693C77.515,70.877,78.624,72.266,77.376,73.167z M83.963,68.727
	c-0.072,2.498-1.388,7.281-4.508,9.915c-0.624,0.488-1.248,0.208-0.971-0.482c0.905-2.221,2.982-7.352,2.014-8.531
	c-0.695-0.902-3.536-0.831-5.967-0.626c-1.107,0.14-2.078,0.211-2.841,0.349c-0.694,0.068-0.831-0.554-0.141-1.04
	c0.903-0.625,1.874-1.11,2.981-1.456c3.955-1.179,8.532-0.485,9.156,0.275c0.137,0.209,0.277,0.625,0.277,1.181
	C83.963,68.312,83.963,68.727,83.963,68.727z"/>
</svg>
