<?xml version="1.0" encoding="utf-8"?>
<!-- Generator: Adobe Illustrator 17.0.0, SVG Export Plug-In . SVG Version: 6.00 Build 0)  -->
<!DOCTYPE svg PUBLIC "-//W3C//DTD SVG 1.1 Tiny//EN" "http://www.w3.org/Graphics/SVG/1.1/DTD/svg11-tiny.dtd">
<svg version="1.1" baseProfile="tiny" id="Layer_1" xmlns="http://www.w3.org/2000/svg" xmlns:xlink="http://www.w3.org/1999/xlink"
	 x="0px" y="0px" width="100px" height="100px" viewBox="0 0 100 100" overflow="visible" xml:space="preserve">
<path fill="#231F20" d="M50.002,21.475c-16.01,0-28.986,12.979-28.986,28.986s12.977,28.986,28.986,28.986
	c16.008,0,28.984-12.979,28.984-28.986S66.01,21.475,50.002,21.475z M48.738,38.889c-2.234-0.116-3.493-1.209-4.51-2.544
	C45.895,34.084,49.839,35.685,48.738,38.889z M43.65,36.923c1.112,1.394,2.569,2.442,4.741,2.775c-0.249,0.677-0.65,1.4-1.122,2.089
	c-1.075,1.704-1.902,2.22-1.902,2.22c-0.394-0.131-0.748-0.271-1.074-0.417c-0.021-0.008-0.044-0.018-0.065-0.027
	c-0.009-0.004-0.017-0.007-0.025-0.012c-0.111-0.047-0.222-0.102-0.333-0.162c-0.667-0.334-1.174-0.683-1.558-1.005
	c-0.765-0.681-1.09-1.283-1.09-1.283C42.123,38.257,43.65,36.923,43.65,36.923z M28.618,53.343H28.6V45.48h0.135
	c0.203,0,0.406,0,0.608,0c2.727,0,5.453,0,8.179,0c-1.365,2.759-3.066,5.182-4.509,7.863c-1.041,0-2.081,0-3.122,0
	C29.467,53.343,29.043,53.343,28.618,53.343z M29.891,66.062l1.041-7.17c1.557,1.888,4.047,2.312,4.047,2.312L29.891,66.062z
	 M31.394,57.852c3.084-5.202,6.099-10.475,9.019-15.841c1.164,1.265,2.586,2.272,4.626,2.66c-3.052,5.273-6.048,10.603-9.251,15.726
	C32.294,60.359,31.394,57.852,31.394,57.852z M58.656,53.457L58.656,53.457l-0.607,0.001H41.222c1.498-2.742,3.04-5.44,4.741-7.979
	c2.698,0,5.396,0,8.094,0c1.453,2.485,2.96,4.916,4.48,7.332l0.476,0.646H58.656z M52.785,40.624
	c-0.855-1.702-1.821-3.596-2.775-5.782c-0.818-1.875-2.023-4.778-1.734-6.706c0.064-0.167,0.181-0.282,0.348-0.347
	c0.442,0.084,0.873,0.336,1.288,0.687v-0.001c0,0,0.009,0.009,0.013,0.012c0.539,0.458,1.05,1.085,1.525,1.744
	c1.127,1.38,2.809,3.61,4.85,6.857c0.001,0.001,0.001,0.001,0.002,0.002c0.143,0.214,0.281,0.428,0.416,0.643
	c2.427,3.872,4.447,7.83,6.128,11.794c-0.786,0.986-2.072,1.474-3.584,1.735C56.53,48.456,54.771,44.572,52.785,40.624z
	 M59.492,52.302c1.752-0.251,3.039-0.969,3.699-2.312c1.148,1.242,1.812,2.967,2.66,4.51c-0.686,1.356-1.637,2.449-3.585,2.544
	C61.152,55.652,60.316,53.983,59.492,52.302z M66.892,65.484c-1.604-1.281-2.743-5.821-3.7-7.863
	c1.285-0.219,2.123-0.885,2.545-1.966c1.063,1.132,2.688,3.713,3.931,5.435c0.504,0.698,1.163,1.231,1.272,1.734
	C71.51,65.464,68.668,66.902,66.892,65.484z M71.402,53.343c-1.697,0-3.393,0-5.088,0c-1.4-2.609-2.875-5.143-4.164-7.863
	c3.084,0,6.168,0,9.252,0C71.402,48.101,71.402,50.722,71.402,53.343z M50,0C22.386,0,0,22.386,0,50s22.386,50,50,50
	s50-22.386,50-50S77.614,0,50,0z M50,84.277c-18.678,0-33.816-15.139-33.816-33.816S31.322,16.643,50,16.643
	c18.676,0,33.818,15.141,33.818,33.818S68.676,84.277,50,84.277z"/>
</svg>
