<?xml version="1.0" encoding="utf-8"?>
<!-- Generator: Adobe Illustrator 17.0.0, SVG Export Plug-In . SVG Version: 6.00 Build 0)  -->
<!DOCTYPE svg PUBLIC "-//W3C//DTD SVG 1.1 Tiny//EN" "http://www.w3.org/Graphics/SVG/1.1/DTD/svg11-tiny.dtd">
<svg version="1.1" baseProfile="tiny" id="Layer_1" xmlns="http://www.w3.org/2000/svg" xmlns:xlink="http://www.w3.org/1999/xlink"
	 x="0px" y="0px" width="100px" height="100px" viewBox="0 0 100 100" overflow="visible" xml:space="preserve">
<path fill="#231F20" d="M75.609,49.806c-1.117-1.819-2.416-3.497-3.766-5.145c-1.385-1.687-2.832-3.32-4.355-4.882
	c-1.752-1.795-3.605-3.502-5.609-5.014c-0.262-0.196-0.541-0.375-0.775-0.602c-0.207-0.2-0.445-0.369-0.707-0.489
	c-0.477-0.219-1.023-0.269-1.523-0.106c-1.098,0.356-1.914,1.425-2.68,2.23c-1.867,1.966-3.445,4.169-5.078,6.326
	c-1.492,1.972-3.055,3.973-4.971,5.556c-0.699,0.578-1.533,1.222-2.473,1.281c-0.645,0.04-1.283-0.099-1.869-0.366
	c-1.271-0.582-2.266-1.655-3.189-2.675c-1.623-1.796-3.721-4.705-6.525-3.803c-1.996,0.643-3.535,2.363-4.787,3.959
	c-0.771,0.983-1.457,2.029-2.129,3.082c-0.658,1.03-1.32,2.06-1.967,3.098c-1.301,2.094-2.514,4.262-3.316,6.601
	c-0.209,0.607-0.389,1.225-0.537,1.849c-0.078,0.332-0.148,0.666-0.209,1.002c-0.027,0.153-0.002,0.209,0.064,0.345
	c0.047,0.095,0.096,0.188,0.143,0.28c0.404,0.769,0.879,1.498,1.414,2.181c2.293,2.927,5.598,4.877,9.025,6.196
	c4.102,1.578,8.492,2.353,12.852,2.76c4.824,0.45,9.715,0.466,14.547,0.129c4.676-0.326,9.398-1.132,13.785-2.822
	c3.643-1.405,7.332-3.552,9.377-6.998c0.07-0.118,0.137-0.241,0.197-0.364c1.152-2.334-0.014-4.726-1.168-6.795
	C78.115,54.352,76.967,52.021,75.609,49.806z M50,0C22.386,0,0,22.386,0,50s22.386,50,50,50s50-22.386,50-50S77.614,0,50,0z
	 M84.746,66.133c-0.643,0.874-1.424,1.644-2.23,2.363c-3.121,2.776-6.691,4.972-10.572,6.509c-4.385,1.736-9.047,2.705-13.727,3.195
	c-5.053,0.529-10.184,0.535-15.246,0.115c-4.365-0.362-8.729-1.089-12.9-2.451c-3.607-1.176-7.078-2.848-10.088-5.176
	c-1.414-1.095-2.721-2.33-3.881-3.692c-0.58-0.683-1.125-1.396-1.629-2.137c-0.072-0.104-0.141-0.209-0.211-0.314
	c-0.094-0.141-0.09-0.231-0.09-0.402c0-0.354,0-0.708,0-1.063c0-0.661,0.152-1.338,0.258-1.99c0.82-5.083,2.146-10.093,4.068-14.873
	c1.807-4.495,4.146-8.794,7.074-12.661c2.762-3.646,6.043-6.95,9.82-9.546c1.934-1.329,4.006-2.469,6.193-3.325
	c1.094-0.429,2.217-0.786,3.359-1.06c0.576-0.138,1.156-0.254,1.74-0.349c0.307-0.05,0.613-0.093,0.92-0.13
	c0.332-0.04,0.67-0.024,1.004-0.024c0.732,0,1.465,0,2.197,0c0.381,0,0.762,0,1.143,0c0.301,0,0.6,0.074,0.895,0.132
	c1.152,0.224,2.295,0.501,3.42,0.838c2.08,0.622,4.1,1.451,6.01,2.49c3.596,1.957,6.729,4.645,9.42,7.717
	c2.883,3.289,5.365,6.953,7.377,10.834c2.375,4.58,4.123,9.478,5.268,14.506c0.096,0.425,0.201,0.848,0.311,1.271
	c0.297,1.16,0.611,2.317,0.85,3.492c0.214,1.06,0.394,2.164,0.304,3.25C85.725,64.579,85.289,65.395,84.746,66.133z"/>
</svg>
