<?xml version="1.0" encoding="utf-8"?>
<!-- Generator: Adobe Illustrator 15.0.0, SVG Export Plug-In . SVG Version: 6.00 Build 0)  -->
<!DOCTYPE svg PUBLIC "-//W3C//DTD SVG 1.1//EN" "http://www.w3.org/Graphics/SVG/1.1/DTD/svg11.dtd">
<svg version="1.1" id="Layer_1" xmlns="http://www.w3.org/2000/svg" xmlns:xlink="http://www.w3.org/1999/xlink" x="0px" y="0px"
	 width="100px" height="100px" viewBox="0 0 100 100" enable-background="new 0 0 100 100" xml:space="preserve">
<g>
	<path fill="#231F20" d="M42.463,53.117c-0.781-0.361-1.887-0.545-3.303-0.56h-7.09v8.796h6.982c1.432,0,2.543-0.188,3.34-0.581
		c1.445-0.719,2.174-2.087,2.174-4.119C44.566,54.938,43.861,53.752,42.463,53.117z"/>
	<path fill="#231F20" d="M42.553,46.275c0.891-0.544,1.338-1.513,1.338-2.9c0-1.536-0.59-2.554-1.773-3.045
		c-1.018-0.34-2.318-0.516-3.896-0.516h-6.15v7.279h6.992C40.496,47.094,41.658,46.82,42.553,46.275z"/>
	<path fill="#231F20" d="M65.791,46.885c-1.59,0-2.818,0.457-3.689,1.354c-0.877,0.897-1.424,2.117-1.648,3.658h10.656
		c-0.115-1.641-0.664-2.885-1.652-3.733C68.477,47.312,67.254,46.885,65.791,46.885z"/>
	<path fill="#231F20" d="M0,0v100h100V0H0z M50.236,52.29c0.859,1.327,1.285,2.94,1.285,4.834c0,1.958-0.482,3.714-1.467,5.266
		c-0.623,1.025-1.4,1.894-2.336,2.593c-1.051,0.808-2.295,1.358-3.729,1.655c-1.434,0.298-2.988,0.446-4.66,0.446H24.455V34.083
		h15.951c4.02,0.065,6.871,1.229,8.553,3.516c1.012,1.402,1.512,3.084,1.512,5.037c0,2.019-0.51,3.634-1.527,4.86
		c-0.566,0.688-1.404,1.313-2.514,1.878C48.109,49.989,49.385,50.956,50.236,52.29z M77.527,55.979H60.305
		c0.094,2.374,0.916,4.036,2.471,4.987c0.939,0.596,2.078,0.889,3.41,0.889c1.406,0,2.553-0.358,3.434-1.087
		c0.48-0.386,0.904-0.931,1.271-1.621h6.312c-0.164,1.403-0.926,2.826-2.291,4.273c-2.119,2.297-5.084,3.45-8.898,3.45
		c-3.148,0-5.924-0.971-8.332-2.909c-2.404-1.942-3.609-5.098-3.609-9.469c0-4.102,1.088-7.241,3.258-9.426
		c2.176-2.188,4.992-3.278,8.461-3.278c2.059,0,3.912,0.367,5.562,1.106c1.65,0.738,3.01,1.903,4.086,3.5
		c0.969,1.408,1.594,3.035,1.885,4.889C77.486,52.364,77.557,53.931,77.527,55.979z M59.09,38.754V35.45h13.299v3.304H59.09z"/>
</g>
</svg>
