<?xml version="1.0" encoding="utf-8"?>
<!-- Generator: Adobe Illustrator 17.0.0, SVG Export Plug-In . SVG Version: 6.00 Build 0)  -->
<!DOCTYPE svg PUBLIC "-//W3C//DTD SVG 1.1 Tiny//EN" "http://www.w3.org/Graphics/SVG/1.1/DTD/svg11-tiny.dtd">
<svg version="1.1" baseProfile="tiny" id="Layer_1" xmlns="http://www.w3.org/2000/svg" xmlns:xlink="http://www.w3.org/1999/xlink"
	 x="0px" y="0px" width="100px" height="100px" viewBox="0 0 100 100" overflow="visible" xml:space="preserve">
<path fill="#231F20" d="M50,0C22.386,0,0,22.386,0,50s22.386,50,50,50s50-22.386,50-50S77.614,0,50,0z M78.496,57.482
	c0,9.872-8.004,17.876-17.877,17.876H41.375c-9.873,0-17.875-8.004-17.875-17.876V37.877c0-9.873,8.002-17.876,17.875-17.876h9.021
	c9.873,0,17.877,8.003,17.877,17.876l0.006,0.039c0.129,1.855,1.676,3.32,3.564,3.32l0.064-0.004h3.016
	c1.975,0,3.576,1.601,3.576,3.576L78.496,57.482z M40.932,41.369h10.123c1.896,0,3.436-1.538,3.436-3.437
	c0-1.897-1.539-3.437-3.436-3.437H40.932c-1.898,0-3.438,1.539-3.438,3.437C37.494,39.831,39.033,41.369,40.932,41.369z
	 M61.23,54.619H40.91c-1.795,0-3.25,1.457-3.25,3.251s1.455,3.251,3.25,3.251h20.32c1.797,0,3.252-1.457,3.252-3.251
	S63.027,54.619,61.23,54.619z"/>
</svg>
