<?xml version="1.0" encoding="utf-8"?>
<!-- Generator: Adobe Illustrator 15.0.0, SVG Export Plug-In . SVG Version: 6.00 Build 0)  -->
<!DOCTYPE svg PUBLIC "-//W3C//DTD SVG 1.1//EN" "http://www.w3.org/Graphics/SVG/1.1/DTD/svg11.dtd">
<svg version="1.1" id="Layer_1" xmlns="http://www.w3.org/2000/svg" xmlns:xlink="http://www.w3.org/1999/xlink" x="0px" y="0px"
	 width="100px" height="100px" viewBox="0 0 100 100" enable-background="new 0 0 100 100" xml:space="preserve">
<path fill="#231F20" d="M0,0v100h100V0H0z M30.562,42.437c0.014,0,0.025,0.002,0.039,0.002c-0.012-0.26-0.039-0.516-0.039-0.777
	c0-9.952,8.068-18.021,18.02-18.021c8.828,0,16.16,6.354,17.707,14.733c0.361-0.021,0.721-0.055,1.088-0.055
	c9.953,0,18.021,8.067,18.021,18.021c0,9.952-8.068,18.02-18.021,18.02c-0.262,0-0.516-0.028-0.773-0.038v0.01h-35.48
	c-0.188,0.007-0.371,0.028-0.561,0.028s-0.373-0.021-0.561-0.028h-0.363l0.006-0.018c-8.385-0.479-15.043-7.41-15.043-15.916
	C14.602,49.582,21.748,42.437,30.562,42.437z"/>
</svg>
