<?xml version="1.0" encoding="utf-8"?>
<!-- Generator: Adobe Illustrator 17.0.0, SVG Export Plug-In . SVG Version: 6.00 Build 0)  -->
<!DOCTYPE svg PUBLIC "-//W3C//DTD SVG 1.1 Tiny//EN" "http://www.w3.org/Graphics/SVG/1.1/DTD/svg11-tiny.dtd">
<svg version="1.1" baseProfile="tiny" id="Layer_1" xmlns="http://www.w3.org/2000/svg" xmlns:xlink="http://www.w3.org/1999/xlink"
	 x="0px" y="0px" width="100px" height="100px" viewBox="0 0 100 100" overflow="visible" xml:space="preserve">
<path fill="#231F20" d="M50,0C22.386,0,0,22.386,0,50s22.386,50,50,50s50-22.386,50-50S77.614,0,50,0z M67.377,74.36
	c-0.262,0-0.516-0.028-0.773-0.038v0.01h-35.48c-0.188,0.007-0.371,0.028-0.561,0.028s-0.373-0.021-0.561-0.028h-0.363l0.006-0.018
	c-8.385-0.479-15.043-7.41-15.043-15.916c0-8.816,7.146-15.961,15.96-15.961c0.014,0,0.025,0.002,0.039,0.002
	c-0.012-0.26-0.039-0.516-0.039-0.777c0-9.952,8.068-18.021,18.02-18.021c8.828,0,16.16,6.354,17.707,14.733
	c0.361-0.021,0.721-0.055,1.088-0.055c9.953,0,18.021,8.067,18.021,18.021C85.398,66.292,77.33,74.36,67.377,74.36z"/>
</svg>
