<?xml version="1.0" encoding="utf-8"?>
<!-- Generator: Adobe Illustrator 17.0.0, SVG Export Plug-In . SVG Version: 6.00 Build 0)  -->
<!DOCTYPE svg PUBLIC "-//W3C//DTD SVG 1.1 Tiny//EN" "http://www.w3.org/Graphics/SVG/1.1/DTD/svg11-tiny.dtd">
<svg version="1.1" baseProfile="tiny" id="Layer_1" xmlns="http://www.w3.org/2000/svg" xmlns:xlink="http://www.w3.org/1999/xlink"
	 x="0px" y="0px" width="100px" height="100px" viewBox="0 0 100 100" xml:space="preserve">
<path fill="#231F20" d="M50.047,22.826c-7.602,0-14.277,2.781-19.469,8.064c-5.283,5.377-8.25,12.33-8.25,19.653
	c0,7.231,2.967,14.184,8.25,19.468s12.145,8.158,19.469,8.158c7.23,0,14.275-2.874,19.746-8.25c5.189-5.1,7.879-11.774,7.879-19.376
	c0-7.509-2.781-14.368-7.973-19.561C64.414,25.7,57.648,22.826,50.047,22.826z M40.84,61.039c-5.961,0-10.082-3.786-10.082-10.495
	c0-6.597,4.385-10.494,9.895-10.494c3.785,0,7.047,1.387,8.957,4.872l-4.496,2.361c-1.051-2.249-2.85-2.736-3.748-2.736
	c-3.336,0-4.535,2.587-4.535,5.997c0,3.411,1.424,5.997,4.535,5.997c1.799,0,3.223-0.675,4.16-2.924l4.197,2.137
	C47.924,58.939,44.662,61.039,40.84,61.039z M60.359,61.039c-5.959,0-10.082-3.786-10.082-10.495c0-6.597,4.385-10.494,9.895-10.494
	c3.785,0,7.045,1.387,8.957,4.872l-4.496,2.361c-1.051-2.249-2.85-2.736-3.75-2.736c-3.334,0-4.535,2.587-4.535,5.997
	c0,3.411,1.426,5.997,4.535,5.997c1.801,0,3.225-0.675,4.16-2.924l4.199,2.137C67.443,58.939,64.182,61.039,60.359,61.039z M50,0
	C22.386,0,0,22.386,0,50s22.386,50,50,50s50-22.386,50-50S77.614,0,50,0z M74.148,74.276C67.475,80.857,58.854,84.38,49.953,84.38
	c-8.898,0-17.336-3.522-23.824-10.011c-6.49-6.49-9.918-14.833-9.918-23.825c0-8.899,3.521-17.428,10.01-24.01
	c6.305-6.396,14.463-9.827,23.732-9.827s17.613,3.431,24.104,9.919c6.396,6.397,9.732,14.741,9.732,23.917
	C83.789,59.814,80.453,68.064,74.148,74.276z"/>
</svg>
