<?xml version="1.0" encoding="utf-8"?>
<!-- Generator: Adobe Illustrator 15.0.0, SVG Export Plug-In . SVG Version: 6.00 Build 0)  -->
<!DOCTYPE svg PUBLIC "-//W3C//DTD SVG 1.1//EN" "http://www.w3.org/Graphics/SVG/1.1/DTD/svg11.dtd">
<svg version="1.1" id="Layer_1" xmlns="http://www.w3.org/2000/svg" xmlns:xlink="http://www.w3.org/1999/xlink" x="0px" y="0px"
	 width="100px" height="100px" viewBox="0 0 100 100" enable-background="new 0 0 100 100" xml:space="preserve">
<g>
	<path fill="#231F20" d="M32.509,64.86c0.459,1.952,2.235,3.205,3.968,2.798L70.5,59.665c1.732-0.407,2.765-2.319,2.306-4.272
		l-4.958-21.108c-0.459-1.953-2.234-3.205-3.967-2.798l-7.345,1.726c-2.138-1.568-4.773-2.496-7.628-2.496
		c-4.994,0-9.32,2.835-11.471,6.982l-7.582,1.781c-1.731,0.407-2.765,2.319-2.306,4.271L32.509,64.86z M50.737,40.052
		c5.063,0,9.17,4.105,9.17,9.17c0,5.065-4.106,9.171-9.17,9.171c-5.065,0-9.172-4.105-9.172-9.171
		C41.565,44.157,45.672,40.052,50.737,40.052z"/>
	<circle fill="#231F20" cx="50.737" cy="49.222" r="5.864"/>
	<path fill="#231F20" d="M0,0v100h100V0H0z M49.999,12.548c20.104,0,36.402,16.297,36.402,36.402c0,7.407-2.215,14.296-6.015,20.045
		l0.002,0.001l5.324,12.836l-12.775-4.617c-6.26,5.086-14.243,8.137-22.938,8.137c-20.104,0-36.401-16.297-36.401-36.401
		S29.895,12.548,49.999,12.548z"/>
</g>
</svg>
