<?xml version="1.0" encoding="utf-8"?>
<!-- Generator: Adobe Illustrator 17.0.0, SVG Export Plug-In . SVG Version: 6.00 Build 0)  -->
<!DOCTYPE svg PUBLIC "-//W3C//DTD SVG 1.1 Tiny//EN" "http://www.w3.org/Graphics/SVG/1.1/DTD/svg11-tiny.dtd">
<svg version="1.1" baseProfile="tiny" id="Layer_1" xmlns="http://www.w3.org/2000/svg" xmlns:xlink="http://www.w3.org/1999/xlink"
	 x="0px" y="0px" width="100px" height="100px" viewBox="0 0 100 100" xml:space="preserve">
<g>
	<circle fill="#231F20" cx="50.607" cy="49.174" r="4.833"/>
	<path fill="#231F20" d="M64.709,36.864c-0.378-1.609-1.841-2.641-3.269-2.306l-6.053,1.422c-1.762-1.292-3.934-2.057-6.287-2.057
		c-4.116,0-7.681,2.336-9.454,5.754l-6.249,1.468c-1.427,0.335-2.279,1.911-1.9,3.52l4.088,17.397
		c0.378,1.609,1.842,2.641,3.27,2.306l28.04-6.587c1.427-0.335,2.279-1.911,1.9-3.521L64.709,36.864z M50.607,56.732
		c-4.174,0-7.559-3.383-7.559-7.558c0-4.174,3.385-7.557,7.559-7.557c4.173,0,7.557,3.383,7.557,7.557
		C58.165,53.348,54.781,56.732,50.607,56.732z"/>
	<path fill="#231F20" d="M50,0C22.386,0,0,22.386,0,50s22.386,50,50,50s50-22.386,50-50S77.614,0,50,0z M75.044,65.471l4.388,10.579
		l-10.528-3.805c-5.159,4.192-11.738,6.706-18.904,6.706c-16.568,0-30-13.431-30-30s13.431-30.001,30-30.001
		c16.568,0,30,13.431,30,30c0,6.104-1.826,11.782-4.957,16.52L75.044,65.471z"/>
</g>
</svg>
