<?xml version="1.0" encoding="utf-8"?>
<!-- Generator: Adobe Illustrator 17.0.0, SVG Export Plug-In . SVG Version: 6.00 Build 0)  -->
<!DOCTYPE svg PUBLIC "-//W3C//DTD SVG 1.1 Tiny//EN" "http://www.w3.org/Graphics/SVG/1.1/DTD/svg11-tiny.dtd">
<svg version="1.1" baseProfile="tiny" id="Layer_1" xmlns="http://www.w3.org/2000/svg" xmlns:xlink="http://www.w3.org/1999/xlink"
	 x="0px" y="0px" width="100px" height="100px" viewBox="0 0 100 100" overflow="visible" xml:space="preserve">
<path fill="#231F20" d="M63.35,15.192l-0.324-0.048c-0.482,0-0.219,0.532-0.645,2.374c-0.215,1.212-0.611,2.422-1.006,3.635
	c-1.793,5.701-4.607,10.838-7.129,15.879l-0.771,1.485l-0.084-0.565c-0.51-2.892-3.641-4.651-6.533-4.651
	c-4.105,0-7.512,2.52-10.379,5.314c-3.705,3.634-6.611,8.578-8.09,13.069c-2.688,8.577-3.559,19.318,6.145,19.494
	c2.617,0,5.738-1.856,8.703-5.59l0.562-0.658c-0.002,0.096-0.008,0.37-0.012,0.565c-0.055,2.711,1.492,5.603,4.383,5.603
	c3.357,0,7.15-2.987,12.959-9.434c1.637-1.775,2.977-3.455,3.846-4.941c0.188-0.47,0.389-0.84,0.393-1.114
	c0.012-0.566-0.271-0.855-0.645-0.855c-0.467,0-0.648,0.192-1.029,0.564c-0.678,0.84-1.92,2.424-4.012,4.476
	c-3.443,3.471-5.82,5.167-7.402,5.167l-0.354-0.03c-1.111-0.275-1.287-1.214-1.27-2.15c0.025-1.211,0.418-2.325,0.73-3.439
	c2.578-7.852,6.355-15.119,9.588-22.679c1.758-4.022,3.789-7.947,5.178-12.051c0.594-1.486,1-3.166,1.029-4.749
	C67.234,17.244,65.486,15.661,63.35,15.192z M44.4,58.209c-1.441,2.519-3.535,4.764-5.062,6.075
	c-0.887,0.709-1.717,1.016-2.459,1.016c-1.793,0-3.002-1.856-2.885-4.572c0.232-6.896,3.439-13.987,8.137-19.496
	c1.42-1.6,2.961-3.554,5.285-3.554c1.973,0,2.967,1.211,2.922,3.457C50.221,47.193,47.588,52.991,44.4,58.209z M50,0
	C22.386,0,0,22.386,0,50s22.386,50,50,50s50-22.386,50-50S77.614,0,50,0z M74.082,31.514c-0.994,2.925-2.309,5.766-3.576,8.513
	c-0.555,1.211-1.113,2.407-1.637,3.603c-1.033,2.439-2.146,4.862-3.209,7.22c-0.32,0.7-0.641,1.41-0.963,2.116
	c0.023,0,0.039-0.008,0.061-0.008c0.693,0,1.375,0.301,1.838,0.867c-0.049-0.058-0.09-0.124-0.143-0.176l6.246,6.308
	c0.439,0.443,0.725,1.099,0.707,1.955c-0.01,0.565-0.23,1.052-0.434,1.521l-0.102,0.259c-0.986,1.728-2.328,3.455-4.162,5.474
	C63.111,75.353,58.756,79.2,54.379,79.2c-1.678,0-3.023-0.648-4.023-1.656l-1.902-1.923c-2.545,2.381-5.213,3.673-7.742,3.673
	c-2.881-0.067-5.162-0.935-6.805-2.597l-6.246-6.305c0.041,0.04,0.092,0.066,0.131,0.107c-0.357-0.348-0.693-0.714-0.99-1.131
	c-3.35-4.684-1.92-12.483-0.113-18.218c1.664-5.025,4.867-10.194,8.557-13.812c2.553-2.504,6.545-5.849,11.648-5.849
	c2.375,0,5.021,1.002,6.695,2.893c-0.09-0.102-0.184-0.203-0.279-0.299l0.285,0.287l0.23-0.458c2.148-4.216,4.367-8.594,5.85-13.295
	c0.379-1.178,0.74-2.293,0.938-3.375c0.176-0.744,0.217-1.178,0.256-1.536c0.232-1.953,1.322-2.358,2.193-2.358
	c0.26,0,0.502,0.034,0.709,0.082c1.49,0.328,2.709,1.052,3.604,2.038c-0.061-0.066-0.105-0.145-0.168-0.208l6.242,6.306
	c1.162,1.173,1.809,2.776,1.773,4.6C75.178,28.283,74.592,30.237,74.082,31.514z"/>
</svg>
