<?xml version="1.0" encoding="utf-8"?>
<!-- Generator: Adobe Illustrator 15.0.0, SVG Export Plug-In . SVG Version: 6.00 Build 0)  -->
<!DOCTYPE svg PUBLIC "-//W3C//DTD SVG 1.1//EN" "http://www.w3.org/Graphics/SVG/1.1/DTD/svg11.dtd">
<svg version="1.1" id="Layer_1" xmlns="http://www.w3.org/2000/svg" xmlns:xlink="http://www.w3.org/1999/xlink" x="0px" y="0px"
	 width="100px" height="100px" viewBox="0 0 100 100" enable-background="new 0 0 100 100" xml:space="preserve">
<g>
	<path fill="#231F20" d="M57.861,56.536V41.988h-4.756c0,0-0.893-0.023-0.893,0.983V57.52h4.756
		C56.969,57.52,57.861,57.543,57.861,56.536z"/>
	<path fill="#231F20" d="M18.08,42.972V57.52h4.756c0,0,0.893,0.023,0.893-0.983V41.988h-4.756
		C18.973,41.988,18.08,41.965,18.08,42.972z"/>
	<path fill="#231F20" d="M81.764,56.536V41.988h-4.758c0,0-0.891-0.023-0.891,0.983V57.52h4.756
		C80.871,57.52,81.764,57.543,81.764,56.536z"/>
	<path fill="#231F20" d="M0,0v100h100V0H0z M31.58,62.375c0,1.005-0.889,0.982-0.889,0.982H10.381V37.144
		c0-1.006,0.891-0.982,0.891-0.982h12.451v-9.086c0-1.005,0.891-0.981,0.891-0.981h6.971C31.584,26.094,31.58,61.454,31.58,62.375z
		 M41.811,62.378c0,1.002-0.891,0.979-0.891,0.979h-6.963c0,0,0-25.299,0-26.217c0-1.003,0.891-0.979,0.891-0.979h6.967
		C41.814,36.161,41.811,62.174,41.811,62.378z M41.812,30.943c0,1.005-0.891,0.982-0.891,0.982h-6.967c0,0,0-3.93,0-4.851
		c0-1.005,0.891-0.981,0.891-0.981h6.971C41.816,26.094,41.812,30.022,41.812,30.943z M65.715,71.706
		c0,1.006-0.891,0.982-0.891,0.982H44.514c0,0,0-3.93,0-4.85c0-1.006,0.891-0.982,0.891-0.982h12.451v-3.499H44.514V37.144
		c0-1.006,0.891-0.982,0.891-0.982l20.312,0.016C65.717,36.177,65.715,70.785,65.715,71.706z M89.617,71.706
		c0,1.006-0.891,0.982-0.891,0.982H68.414c0,0,0-3.93,0-4.85c0-1.006,0.891-0.982,0.891-0.982h12.453v-3.499H68.414V37.144
		c0-1.006,0.891-0.982,0.891-0.982l20.314,0.016C89.619,36.177,89.617,70.785,89.617,71.706z"/>
</g>
</svg>
