<?xml version="1.0" encoding="utf-8"?>
<!-- Generator: Adobe Illustrator 17.0.0, SVG Export Plug-In . SVG Version: 6.00 Build 0)  -->
<!DOCTYPE svg PUBLIC "-//W3C//DTD SVG 1.1 Tiny//EN" "http://www.w3.org/Graphics/SVG/1.1/DTD/svg11-tiny.dtd">
<svg version="1.1" baseProfile="tiny" id="Layer_1" xmlns="http://www.w3.org/2000/svg" xmlns:xlink="http://www.w3.org/1999/xlink"
	 x="0px" y="0px" width="100px" height="100px" viewBox="0 0 100 100" overflow="visible" xml:space="preserve">
<path fill="#231F20" d="M25.83,44.53v11.016h3.601c0,0,0.676,0.017,0.676-0.744V43.785h-3.601
	C26.506,43.785,25.83,43.768,25.83,44.53z M55.952,54.801V43.785h-3.601c0,0-0.676-0.017-0.676,0.744v11.017h3.601
	C55.277,55.546,55.952,55.564,55.952,54.801z M50,0C22.386,0,0,22.386,0,50s22.386,50,50,50s50-22.386,50-50S77.614,0,50,0z
	 M36.052,59.223c0,0.761-0.673,0.744-0.673,0.744H20v-19.85c0-0.762,0.675-0.744,0.675-0.744h9.428v-6.88
	c0-0.761,0.675-0.743,0.675-0.743h5.279C36.055,31.75,36.052,58.525,36.052,59.223z M43.799,59.225c0,0.759-0.675,0.741-0.675,0.741
	h-5.272c0,0,0-19.157,0-19.852c0-0.759,0.675-0.741,0.675-0.741h5.276C43.801,39.373,43.799,59.07,43.799,59.225z M43.8,35.422
	c0,0.761-0.675,0.744-0.675,0.744H37.85c0,0,0-2.976,0-3.673c0-0.761,0.675-0.743,0.675-0.743h5.279
	C43.803,31.75,43.8,34.724,43.8,35.422z M61.9,66.288c0,0.762-0.675,0.744-0.675,0.744H45.846c0,0,0-2.976,0-3.672
	c0-0.762,0.675-0.744,0.675-0.744h9.428v-2.649H45.846v-19.85c0-0.762,0.675-0.744,0.675-0.744l15.38,0.012
	C61.901,39.385,61.9,65.591,61.9,66.288z M79.998,66.288c0,0.762-0.675,0.744-0.675,0.744h-15.38c0,0,0-2.976,0-3.672
	c0-0.762,0.675-0.744,0.675-0.744h9.43v-2.649H63.943v-19.85c0-0.762,0.675-0.744,0.675-0.744L80,39.386
	C80,39.385,79.998,65.591,79.998,66.288z M74.052,54.801V43.785h-3.603c0,0-0.675-0.017-0.675,0.744v11.017h3.601
	C73.376,55.546,74.052,55.564,74.052,54.801z"/>
</svg>
