<?xml version="1.0" encoding="utf-8"?>
<!-- Generator: Adobe Illustrator 17.0.0, SVG Export Plug-In . SVG Version: 6.00 Build 0)  -->
<!DOCTYPE svg PUBLIC "-//W3C//DTD SVG 1.1 Tiny//EN" "http://www.w3.org/Graphics/SVG/1.1/DTD/svg11-tiny.dtd">
<svg version="1.1" baseProfile="tiny" id="Layer_1" xmlns="http://www.w3.org/2000/svg" xmlns:xlink="http://www.w3.org/1999/xlink"
	 x="0px" y="0px" width="100px" height="100px" viewBox="0 0 100 100" overflow="visible" xml:space="preserve">
<path fill="#231F20" d="M52.133,50.555c0.396-0.129,0.797-0.248,1.199-0.363c-0.764-1.732-1.598-3.467-2.471-5.176
	c-15.23,4.559-30.01,4.369-31.346,4.34c-0.008,0.311-0.016,0.622-0.016,0.934c0,7.833,2.971,14.984,7.842,20.392
	C28.033,69.498,36.402,55.639,52.133,50.555z M48.34,40.327c-5.053-8.983-10.502-16.535-11.307-17.639
	c-8.532,4.025-14.911,11.891-16.889,21.354C21.509,44.061,34.074,44.115,48.34,40.327z M70.217,27.475
	C64.83,22.697,57.75,19.789,50,19.789c-2.459,0-4.854,0.296-7.146,0.85c0.842,1.128,6.381,8.671,11.379,17.854
	C65.078,34.428,69.668,28.257,70.217,27.475z M58.599,47.445c0.225,0.526,0.445,1.051,0.658,1.572
	c10.148-1.275,20.23,0.771,21.236,0.982c-0.066-7.199-2.639-13.809-6.887-18.998c-0.643,0.87-5.752,7.424-17.03,12.026
	C57.287,44.479,57.967,45.957,58.599,47.445z M55.205,55.303c-17.201,5.995-23.377,17.924-23.926,19.046
	c5.172,4.032,11.67,6.438,18.721,6.438c4.225,0,8.252-0.864,11.912-2.424c-0.453-2.676-2.225-12.002-6.504-23.129
	C55.34,55.258,55.273,55.279,55.205,55.303z M50,0C22.386,0,0,22.386,0,50s22.386,50,50,50s50-22.386,50-50S77.614,0,50,0z
	 M50,85.948c-19.69,0-35.708-16.019-35.708-35.706c0-19.688,16.018-35.707,35.708-35.707c19.689,0,35.705,16.019,35.705,35.707
	S69.689,85.948,50,85.948z M61.113,53.826c3.99,10.961,5.615,19.89,5.928,21.745c6.84-4.627,11.713-11.956,13.072-20.442
	C79.068,54.801,70.674,52.296,61.113,53.826z"/>
</svg>
