<?xml version="1.0" encoding="utf-8"?>
<!-- Generator: Adobe Illustrator 17.0.0, SVG Export Plug-In . SVG Version: 6.00 Build 0)  -->
<!DOCTYPE svg PUBLIC "-//W3C//DTD SVG 1.1 Tiny//EN" "http://www.w3.org/Graphics/SVG/1.1/DTD/svg11-tiny.dtd">
<svg version="1.1" baseProfile="tiny" id="Layer_1" xmlns="http://www.w3.org/2000/svg" xmlns:xlink="http://www.w3.org/1999/xlink"
	 x="0px" y="0px" width="100px" height="100px" viewBox="0 0 100 100" xml:space="preserve">
<path fill="#231F20" d="M50,0C22.386,0,0,22.386,0,50s22.386,50,50,50s50-22.386,50-50S77.614,0,50,0z M14.391,55.775l12.658-10.746
	l20.609,12.513L35.441,68.141L14.391,55.775z M49.115,83.303L28.08,70.349v-3.975l7.066,3.827l13.969-11.482V83.303z M27.197,42.82
	L13.359,31.485l21.934-13.543l13.822,11.482L27.197,42.82z M64.705,17.943l21.932,13.543L72.801,42.82L50.883,29.425L64.705,17.943z
	 M71.916,70.349L50.883,83.303V58.719l13.971,11.482l7.062-3.827V70.349z M64.559,68.141L52.34,57.542l20.607-12.513l12.66,10.746
	L64.559,68.141z"/>
</svg>
