<?xml version="1.0" encoding="utf-8"?>
<!-- Generator: Adobe Illustrator 17.0.0, SVG Export Plug-In . SVG Version: 6.00 Build 0)  -->
<!DOCTYPE svg PUBLIC "-//W3C//DTD SVG 1.1 Tiny//EN" "http://www.w3.org/Graphics/SVG/1.1/DTD/svg11-tiny.dtd">
<svg version="1.1" baseProfile="tiny" id="Layer_1" xmlns="http://www.w3.org/2000/svg" xmlns:xlink="http://www.w3.org/1999/xlink"
	 x="0px" y="0px" width="100px" height="100px" viewBox="0 0 100 100" xml:space="preserve">
<path fill="#231F20" d="M50,0C22.386,0,0,22.386,0,50s22.386,50,50,50s50-22.386,50-50S77.614,0,50,0z M69.727,65.155
	c-6.401,11.499-20.917,15.63-32.413,9.227C25.816,67.989,21.518,53.38,28.09,41.979c1.326-2.3,3.322-4.426,3.801-4.906
	c0.239-0.238,1.568,0.595,1.162,1.272c-2.182,7.607-1.146,12.88,1.466,17.888c0.189,0.116,1.143,0.541,1.247,0.167
	c0.57-15.646,8.736-25.39,18.411-32.004c5.528-1.711,10.132-2.262,11.737-1.371C70.256,25.451,77.132,51.883,69.727,65.155z"/>
</svg>
