<?xml version="1.0" encoding="utf-8"?>
<!-- Generator: Adobe Illustrator 17.0.0, SVG Export Plug-In . SVG Version: 6.00 Build 0)  -->
<!DOCTYPE svg PUBLIC "-//W3C//DTD SVG 1.1 Tiny//EN" "http://www.w3.org/Graphics/SVG/1.1/DTD/svg11-tiny.dtd">
<svg version="1.1" baseProfile="tiny" id="Layer_1" xmlns="http://www.w3.org/2000/svg" xmlns:xlink="http://www.w3.org/1999/xlink"
	 x="0px" y="0px" width="100px" height="100px" viewBox="0 0 100 100" xml:space="preserve">
<path fill="#231F20" d="M50,0C22.386,0,0,22.386,0,50s22.386,50,50,50s50-22.386,50-50S77.614,0,50,0z M70.537,75.664
	c-1.508,0.979-3.191-0.127-5.021-0.279c-4.529-0.377-10.281,0-15.898,0c-5.441,0-11.023-0.202-15.619,0
	c-2.373,0.104-4.93,0.921-6.695-0.278c-0.508-4.111,4.516-1.989,6.416-3.905c0.332-0.336,1.213-2.71,1.395-4.184
	c0.521-4.221,0-11.206,0-18.131c0-6.554,0.441-13.381,0-17.852c-0.166-1.684-0.898-4.178-1.395-4.742
	c-1.525-1.736-5.883-0.404-5.299-3.626c0.863-1.445,2.975-0.837,4.184-0.837c10.121,0,24.537,0.627,34.029-0.558
	c0.914-0.114,2.369-0.789,3.346,0.558c0.359,1.366-0.465,2.579-0.557,4.463c-0.123,2.513,1.344,7.947-1.674,7.252
	c-1.5-0.344-0.836-3.319-1.674-4.741c-1.541-2.613-9.609-3.048-14.783-3.068c-2.953-0.012-7.311,0.055-9.205,1.953
	c-0.439,5.147-0.48,12.152,0,17.293c3.49,0.641,10.047,1.004,14.227,0.559c1.064-0.114,2.627-0.329,3.346-0.838
	c2.25-1.589,0.615-4.431,2.789-6.136c2.768,0.039,1.787,3.014,1.674,5.578c-0.082,1.9-0.09,4.212,0,5.857
	c0.143,2.553,1.262,5.289-0.836,5.857c-3.047-1.038-1.549-4.228-4.184-5.857c-3.939-2.435-11.156-0.146-16.736-0.558
	c-0.951,2.821-0.559,6.353-0.559,10.042c0,3.262-0.771,7.214,0.559,9.762c1.576,3.02,9.275,2.575,13.668,2.231
	c5.119-0.4,10.494-1.444,11.994-4.462c1.238-2.493-0.236-4.403,1.951-6.416c5.137,0.986,1.605,5.619,1.117,9.483
	C70.838,72.12,71.701,74.151,70.537,75.664z"/>
</svg>
