<?xml version="1.0" encoding="utf-8"?>
<!-- Generator: Adobe Illustrator 17.0.0, SVG Export Plug-In . SVG Version: 6.00 Build 0)  -->
<!DOCTYPE svg PUBLIC "-//W3C//DTD SVG 1.1 Tiny//EN" "http://www.w3.org/Graphics/SVG/1.1/DTD/svg11-tiny.dtd">
<svg version="1.1" baseProfile="tiny" id="Layer_1" xmlns="http://www.w3.org/2000/svg" xmlns:xlink="http://www.w3.org/1999/xlink"
	 x="0px" y="0px" width="100px" height="100px" viewBox="0 0 100 100" xml:space="preserve">
<path fill="#231F20" d="M64.678,47.062c-0.326-0.337-0.705-0.635-1.135-0.85c-0.428-0.214-0.912-0.345-1.436-0.345
	c-0.002,0-0.002,0-0.004,0c-0.654,0-1.223,0.187-1.689,0.48c-0.701,0.444-1.172,1.119-1.473,1.785
	c-0.301,0.669-0.438,1.328-0.438,1.811c0,0.122,0.008,0.236,0.031,0.344c0.021,0.106,0.053,0.209,0.139,0.316
	c0.064,0.079,0.152,0.145,0.244,0.181c0.092,0.037,0.184,0.049,0.27,0.049c0.227-0.003,0.424-0.073,0.641-0.159
	c0.322-0.129,0.68-0.307,1.066-0.452c0.389-0.143,0.799-0.25,1.211-0.25c0,0,0,0,0.002,0c0.004,0,0.008,0,0.014,0
	c0.553,0,1.258,0.285,1.898,0.595c0.324,0.155,0.631,0.312,0.91,0.436c0.141,0.062,0.273,0.117,0.404,0.156
	c0.129,0.042,0.254,0.069,0.391,0.071c0.07,0,0.143-0.009,0.219-0.033c0.076-0.024,0.152-0.066,0.217-0.128
	c0.094-0.088,0.133-0.187,0.156-0.273c0.021-0.088,0.031-0.175,0.031-0.267c-0.004-0.334-0.102-0.755-0.283-1.239
	C65.793,48.572,65.334,47.737,64.678,47.062z M50,0C22.386,0,0,22.386,0,50s22.386,50,50,50s50-22.386,50-50S77.614,0,50,0z
	 M32.225,20.311c-0.021,0.902-0.057,2.396-0.09,3.936c-0.055,2.454-0.107,5.008-0.107,5.452c0,0.198-0.018,0.388-0.059,0.549
	c-0.068,0.244-0.174,0.423-0.404,0.573c-0.232,0.149-0.617,0.267-1.248,0.267c0,0,0,0-0.002,0c-0.895,0-3.332,0-5.547,0
	c-1.107,0-2.156,0-2.932,0c-0.156,0-0.303,0-0.436,0L32.225,20.311z M72.893,75.162c-0.887,3.081-2.084,5.669-3.646,7.463
	c-0.783,0.898-1.656,1.598-2.631,2.075s-2.053,0.733-3.262,0.733c-0.006,0-0.01,0-0.014,0c-6.168,0.002-9.582-0.317-11.523-0.708
	c-0.973-0.194-1.572-0.408-1.969-0.602c-0.398-0.196-0.59-0.363-0.791-0.529c-0.109-0.088-0.273-0.296-0.436-0.629
	c-0.244-0.5-0.492-1.274-0.678-2.347c-0.186-1.071-0.309-2.442-0.309-4.145c0-0.781,0.027-1.634,0.084-2.559
	c0.076-1.222,0.461-2.147,1.033-2.878c0.859-1.095,2.176-1.75,3.562-2.127c1.383-0.373,2.822-0.468,3.889-0.468
	c0.004,0,0.004,0,0.006,0c0.5,0,0.918,0.02,1.207,0.04c0.049,0.002,0.092,0.006,0.133,0.009l-0.215,4.724
	c-0.422,0.023-1.287,0.059-2.592,0.059c-0.002,0-0.004,0-0.004,0c-0.312,0-0.609,0.1-0.863,0.261
	c-0.383,0.247-0.684,0.625-0.895,1.067c-0.209,0.442-0.33,0.954-0.33,1.478c0,0.707,0.225,1.45,0.773,2.032
	c0.547,0.585,1.398,0.988,2.572,1.072l0.021,0.002l6.473-0.263l0.02-0.002c0.533-0.075,0.988-0.321,1.336-0.686
	c0.527-0.545,0.838-1.323,1.029-2.231c0.189-0.908,0.258-1.956,0.258-3.059c0-1.605-0.146-3.326-0.301-4.882
	c-0.043-0.47-0.195-0.89-0.434-1.249c-0.42-0.633-1.08-1.075-1.871-1.413c-1.191-0.505-2.699-0.79-4.287-1.05
	c-1.588-0.26-3.258-0.494-4.742-0.868c-1.098-0.278-1.967-0.778-2.676-1.377c-1.064-0.899-1.766-2.028-2.277-2.948
	c-0.256-0.461-0.465-0.867-0.66-1.18c-0.098-0.156-0.191-0.29-0.307-0.403c-0.055-0.058-0.119-0.109-0.197-0.151
	c-0.076-0.042-0.174-0.072-0.277-0.072H47.1c-0.104,0-0.207,0.041-0.273,0.094c-0.072,0.053-0.117,0.11-0.152,0.168
	c-0.064,0.11-0.1,0.221-0.133,0.349c-0.059,0.237-0.096,0.532-0.129,0.883c-0.115,1.218-0.156,3.104-0.443,4.665
	c-0.143,0.778-0.35,1.472-0.629,1.934c-0.137,0.233-0.293,0.405-0.455,0.516c-0.16,0.109-0.33,0.166-0.545,0.168
	c-0.002,0-0.002,0-0.004,0c-0.705,0-2.117-0.1-3.855-0.284c-2.611-0.276-5.975-0.745-8.887-1.354
	c-1.451-0.305-2.795-0.646-3.867-1.01c-0.535-0.184-1.006-0.372-1.385-0.562c-0.377-0.189-0.664-0.384-0.836-0.556
	c-0.443-0.442-0.904-1.17-1.346-2.102c-0.775-1.632-1.502-3.884-2.148-6.363c-0.971-3.719-1.764-7.952-2.311-11.411
	c-0.275-1.731-0.49-3.269-0.633-4.455c-0.074-0.591-0.129-1.096-0.166-1.49c-0.037-0.393-0.055-0.682-0.055-0.821
	c0-0.388,0.078-0.683,0.209-0.918c0.199-0.349,0.529-0.594,1.018-0.763c0.486-0.164,1.115-0.239,1.826-0.239c0.004,0,0.006,0,0.01,0
	c0.279,0,0.57,0.01,0.875,0.03l0.012,0.001h8.664c0.473-0.001,0.908-0.07,1.303-0.219c0.594-0.22,1.086-0.623,1.41-1.188
	c0.326-0.564,0.49-1.278,0.49-2.134c0-2.175-0.055-3.526-0.055-6.501c-0.002-1.467,0.146-2.972,0.57-4.067
	c0.209-0.549,0.484-0.988,0.824-1.285c0.342-0.295,0.738-0.463,1.273-0.47c0.678-0.008,1.625-0.076,2.719-0.141
	c1.092-0.064,2.324-0.128,3.557-0.128c1.049,0,2.096,0.046,3.049,0.174c0.949,0.126,1.805,0.338,2.465,0.649
	c0.715,0.341,1.271,0.838,1.711,1.404c0.656,0.851,1.041,1.856,1.252,2.647c0.105,0.396,0.17,0.737,0.205,0.978
	c0.02,0.121,0.033,0.216,0.039,0.279c0.004,0.033,0.006,0.056,0.008,0.073v0.021l0.025,0.299l15.572,0.994h0.014
	c0.17,0.015,1.766,0.171,3.275,0.829c0.758,0.328,1.486,0.78,2.018,1.38c0.529,0.604,0.869,1.343,0.873,2.32
	c0,0.492,0.072,1.479,0.18,2.886c0.32,4.212,0.963,12.115,0.963,20.559C75.201,60.869,74.668,68.995,72.893,75.162z"/>
</svg>
