<?xml version="1.0" encoding="utf-8"?>
<!-- Generator: Adobe Illustrator 15.0.0, SVG Export Plug-In . SVG Version: 6.00 Build 0)  -->
<!DOCTYPE svg PUBLIC "-//W3C//DTD SVG 1.1//EN" "http://www.w3.org/Graphics/SVG/1.1/DTD/svg11.dtd">
<svg version="1.1" id="Layer_1" xmlns="http://www.w3.org/2000/svg" xmlns:xlink="http://www.w3.org/1999/xlink" x="0px" y="0px"
	 width="100px" height="100px" viewBox="0 0 100 100" enable-background="new 0 0 100 100" xml:space="preserve">
<path fill="#231F20" d="M0,0v100h100V0H0z M81.979,48.701c0,7.914-6.416,14.332-14.333,14.332c-7.915,0-14.333-6.418-14.333-14.332
	c0-7.918,6.418-14.335,14.333-14.335C75.562,34.366,81.979,40.783,81.979,48.701z M32.355,63.033
	c-7.917,0-14.334-6.418-14.334-14.332c0-7.918,6.417-14.335,14.334-14.335c7.914,0,14.332,6.417,14.332,14.335
	C46.688,56.615,40.27,63.033,32.355,63.033z"/>
</svg>
