<?xml version="1.0" encoding="utf-8"?>
<!-- Generator: Adobe Illustrator 17.0.0, SVG Export Plug-In . SVG Version: 6.00 Build 0)  -->
<!DOCTYPE svg PUBLIC "-//W3C//DTD SVG 1.1 Tiny//EN" "http://www.w3.org/Graphics/SVG/1.1/DTD/svg11-tiny.dtd">
<svg version="1.1" baseProfile="tiny" id="Layer_1" xmlns="http://www.w3.org/2000/svg" xmlns:xlink="http://www.w3.org/1999/xlink"
	 x="0px" y="0px" width="100px" height="100px" viewBox="0 0 100 100" overflow="visible" xml:space="preserve">
<path fill="#231F20" d="M50,0C22.386,0,0,22.386,0,50s22.386,50,50,50s50-22.386,50-50S77.614,0,50,0z M32.355,63.033
	c-7.917,0-14.334-6.418-14.334-14.332c0-7.918,6.417-14.335,14.334-14.335c7.914,0,14.332,6.417,14.332,14.335
	C46.688,56.615,40.27,63.033,32.355,63.033z M67.646,63.033c-7.915,0-14.333-6.418-14.333-14.332
	c0-7.918,6.418-14.335,14.333-14.335c7.916,0,14.333,6.417,14.333,14.335C81.979,56.615,75.563,63.033,67.646,63.033z"/>
</svg>
