<?xml version="1.0" encoding="utf-8"?>
<!-- Generator: Adobe Illustrator 17.0.0, SVG Export Plug-In . SVG Version: 6.00 Build 0)  -->
<!DOCTYPE svg PUBLIC "-//W3C//DTD SVG 1.1 Tiny//EN" "http://www.w3.org/Graphics/SVG/1.1/DTD/svg11-tiny.dtd">
<svg version="1.1" baseProfile="tiny" id="Layer_1" xmlns="http://www.w3.org/2000/svg" xmlns:xlink="http://www.w3.org/1999/xlink"
	 x="0px" y="0px" width="100px" height="100px" viewBox="0 0 100 100" xml:space="preserve">
<path fill="#231F20" d="M50,0C22.386,0,0,22.386,0,50s22.386,50,50,50s50-22.386,50-50S77.614,0,50,0z M81.124,55.574L55.479,81.22
	c-3.065,3.065-8.082,3.065-11.148,0L18.684,55.574c-3.066-3.065-3.066-8.084,0-11.149L44.329,18.78
	c3.066-3.066,8.083-3.066,11.149,0l11.583,11.582l-17.391,17.4l-8.187-8.201c-1.138-1.145-2.724-1.806-4.345-1.806
	c-1.625,0.003-3.205,0.656-4.346,1.791l-5.254,5.249c-1.163,1.159-1.806,2.705-1.806,4.349c0,1.644,0.642,3.188,1.805,4.349
	l17.757,17.793c0.803,0.807,1.82,1.374,2.92,1.636l0.251,0.167l1.198,0.003c1.642,0,3.184-0.636,4.35-1.789l26.987-27l0.124,0.122
	C84.189,47.491,84.189,52.509,81.124,55.574z M82.969,36.625L51.107,68.5c-0.421,0.416-0.983,0.65-1.576,0.649l-0.002-0.003
	c-0.006,0.002-0.012,0.002-0.017,0.002c-0.085,0.001-0.169-0.004-0.253-0.016c-0.491-0.054-0.953-0.274-1.309-0.631l-17.762-17.8
	c-0.864-0.862-0.861-2.258,0.003-3.119l5.247-5.241c0.411-0.411,0.981-0.644,1.561-0.645c0.585-0.002,1.149,0.235,1.56,0.647
	l10.975,10.994l25.072-25.083c0.42-0.415,0.974-0.646,1.563-0.645c0.592-0.002,1.141,0.229,1.562,0.647l5.239,5.247
	C83.832,34.369,83.831,35.765,82.969,36.625z"/>
</svg>
