<?xml version="1.0" encoding="utf-8"?>
<!-- Generator: Adobe Illustrator 17.0.0, SVG Export Plug-In . SVG Version: 6.00 Build 0)  -->
<!DOCTYPE svg PUBLIC "-//W3C//DTD SVG 1.1 Tiny//EN" "http://www.w3.org/Graphics/SVG/1.1/DTD/svg11-tiny.dtd">
<svg version="1.1" baseProfile="tiny" id="Layer_1" xmlns="http://www.w3.org/2000/svg" xmlns:xlink="http://www.w3.org/1999/xlink"
	 x="0px" y="0px" width="100px" height="100px" viewBox="0 0 100 100" xml:space="preserve">
<path fill="#231F20" d="M50.141,61.976c3.769,0,6.824,1.903,6.824,4.251s-3.055,4.251-6.824,4.251s-6.824-1.903-6.824-4.251
	S46.372,61.976,50.141,61.976z M49.23,29.299c2.584,0,4.678,2.632,4.678,5.878s-2.094,5.878-4.678,5.878s-4.678-2.632-4.678-5.878
	S46.646,29.299,49.23,29.299z M50,0C22.386,0,0,22.386,0,50s22.386,50,50,50s50-22.386,50-50S77.614,0,50,0z M62.501,35.182
	c0,7.247-5.84,13.135-13.098,13.278c-1.916,3.813-0.003,5.578,1.468,6.328c0,0,0.298,0.151,0.95,0.388
	c0.239,0.076,0.391,0.107,0.391,0.107s-0.002,0.011-0.003,0.03c0.457,0.155,1.04,0.338,1.76,0.534
	c0.876,0.146,1.723,0.347,2.533,0.601c0.003,0,0.008,0.002,0.013,0.003c0,0,0.013,0.003,0.017,0.006
	c1.336,0.421,2.569,0.983,3.664,1.659c0.451,0.259,0.86,0.529,1.16,0.798l0.002,0.002c2.335,1.799,3.819,4.205,3.981,6.916
	c0.364,6.147-6.211,11.533-14.684,12.029C42.18,78.357,35.016,73.777,34.65,67.63c-0.257-4.348,2.959-8.313,7.859-10.438
	c-5.216-4.507-2.277-8.819-0.432-10.731c-3.786-2.345-6.308-6.519-6.308-11.279c0-7.337,5.984-13.284,13.365-13.284
	c2.213,0,4.297,0.537,6.134,1.483c0,0,3.796,1.554,10.098-1.483v8.16h0.002c0,0-1.893,0.859-3.395,1.421
	C62.314,32.655,62.501,33.897,62.501,35.182z"/>
</svg>
