<?xml version="1.0" encoding="utf-8"?>
<!-- Generator: Adobe Illustrator 15.0.0, SVG Export Plug-In . SVG Version: 6.00 Build 0)  -->
<!DOCTYPE svg PUBLIC "-//W3C//DTD SVG 1.1//EN" "http://www.w3.org/Graphics/SVG/1.1/DTD/svg11.dtd">
<svg version="1.1" id="Layer_1" xmlns="http://www.w3.org/2000/svg" xmlns:xlink="http://www.w3.org/1999/xlink" x="0px" y="0px"
	 width="100px" height="100px" viewBox="0 0 100 100" enable-background="new 0 0 100 100" xml:space="preserve">
<g>
	<ellipse fill="#231F20" cx="50.175" cy="70.207" rx="8.487" ry="5.287"/>
	<ellipse fill="#231F20" cx="49.043" cy="31.588" rx="5.818" ry="7.311"/>
	<path fill="#231F20" d="M0,0v100h100V0H0z M69.111,25.222c0,0-2.354,1.069-4.223,1.768c0.428,1.462,0.66,3.007,0.66,4.605
		c0,9.014-7.264,16.337-16.291,16.515c-2.383,4.742-0.004,6.938,1.826,7.871c0,0,0.371,0.188,1.182,0.482
		c0.297,0.094,0.486,0.133,0.486,0.133s-0.002,0.014-0.004,0.037c0.568,0.193,1.293,0.42,2.189,0.664
		c1.09,0.182,2.143,0.432,3.15,0.748c0.004,0,0.01,0.002,0.016,0.004c0,0,0.016,0.004,0.021,0.008
		c1.662,0.523,3.195,1.223,4.557,2.064c0.561,0.322,1.07,0.658,1.443,0.992l0.002,0.002c2.904,2.238,4.75,5.23,4.951,8.602
		c0.453,7.645-7.725,14.344-18.264,14.961c-10.541,0.617-19.451-5.08-19.906-12.725c-0.32-5.408,3.68-10.34,9.775-12.982
		c-6.488-5.605-2.832-10.969-0.537-13.347c-4.709-2.917-7.846-8.108-7.846-14.029c0-9.125,7.443-16.522,16.623-16.522
		c2.752,0,5.344,0.668,7.629,1.844c0,0,4.721,1.933,12.559-1.844V25.222z"/>
</g>
</svg>
