<?xml version="1.0" encoding="utf-8"?>
<!-- Generator: Adobe Illustrator 17.0.0, SVG Export Plug-In . SVG Version: 6.00 Build 0)  -->
<!DOCTYPE svg PUBLIC "-//W3C//DTD SVG 1.1 Tiny//EN" "http://www.w3.org/Graphics/SVG/1.1/DTD/svg11-tiny.dtd">
<svg version="1.1" baseProfile="tiny" id="Layer_1" xmlns="http://www.w3.org/2000/svg" xmlns:xlink="http://www.w3.org/1999/xlink"
	 x="0px" y="0px" width="100px" height="100px" viewBox="0 0 100 100" overflow="visible" xml:space="preserve">
<path fill="#231F20" d="M49.836,23.512c-4.609,0.133-8.029,1.993-10.26,5.58c-2.305,3.587-3.457,7.719-3.457,12.395
	c0,4.995,1.176,9.206,3.529,12.634c2.328,3.534,5.725,5.341,10.188,5.42c4.73-0.079,8.234-1.938,10.516-5.579
	c2.279-3.428,3.42-7.585,3.42-12.475c0-4.889-1.141-9.073-3.42-12.555C58.07,25.452,54.566,23.646,49.836,23.512z M50,0
	C22.386,0,0,22.386,0,50s22.386,50,50,50s50-22.386,50-50S77.614,0,50,0z M66.683,61.574L66.683,61.574
	c-0.001,0.851-0.073,2.258-0.22,4.225c-0.193,1.966-0.787,4.039-1.781,6.217c-0.996,2.18-2.633,4-4.912,5.461
	c-2.305,1.515-5.52,2.271-9.643,2.271c-4.172,0-7.617-0.971-10.334-2.909c-2.789-2.02-4.328-5.394-4.619-10.123h2.838
	c0.387,3.64,1.721,6.271,4.002,7.892c2.232,1.646,4.959,2.471,8.186,2.471c3.348-0.054,5.955-0.73,7.824-2.033
	c1.891-1.195,3.262-2.644,4.111-4.344c0.848-1.807,1.369-3.494,1.564-5.062c0.096-1.514,0.145-2.629,0.145-3.348v-9.645h-0.145
	c-2.742,6.324-7.363,9.513-13.863,9.565c-5.555-0.053-9.701-2.059-12.443-6.019c-2.717-3.879-4.074-8.781-4.074-14.706
	c0-5.766,1.43-10.615,4.293-14.547c2.789-3.959,6.863-5.991,12.225-6.098c3.08,0,5.895,0.811,8.441,2.432
	c2.523,1.647,4.33,4.079,5.422,7.293h0.145v-8.768h2.838V61.574z"/>
</svg>
