<?xml version="1.0" encoding="utf-8"?>
<!-- Generator: Adobe Illustrator 17.0.0, SVG Export Plug-In . SVG Version: 6.00 Build 0)  -->
<!DOCTYPE svg PUBLIC "-//W3C//DTD SVG 1.1 Tiny//EN" "http://www.w3.org/Graphics/SVG/1.1/DTD/svg11-tiny.dtd">
<svg version="1.1" baseProfile="tiny" id="Layer_1" xmlns="http://www.w3.org/2000/svg" xmlns:xlink="http://www.w3.org/1999/xlink"
	 x="0px" y="0px" width="100px" height="100px" viewBox="0 0 100 100" overflow="visible" xml:space="preserve">
<path fill="#231F20" d="M43.68,56.818c-6.569-0.072-12.137,4.152-12.137,9.048c0,4.996,4.745,9.155,11.313,9.155
	c9.237,0,12.457-3.904,12.457-8.9c0-0.604-0.074-1.192-0.209-1.765c-0.723-2.825-3.6-4.376-7.166-6.854
	C46.641,57.081,45.212,56.835,43.68,56.818z M41.827,24.907c-4.409-0.131-7.366,4.3-6.604,10.093
	c0.761,5.79,4.951,9.835,9.361,9.968c4.408,0.131,6.945-3.596,6.185-9.387C50.008,29.79,46.235,25.039,41.827,24.907z M50,0
	C22.386,0,0,22.386,0,50s22.386,50,50,50s50-22.386,50-50S77.614,0,50,0z M57.343,35.334c0,3.617-2.005,6.532-4.835,8.745
	c-2.762,2.156-3.285,3.061-3.285,4.896c0,1.566,3.3,3.897,4.817,5.036c5.283,3.962,6.354,6.455,6.354,11.412
	c0,6.183-6.665,12.331-17.501,12.331c-9.505,0-17.525-3.867-17.525-10.048c0-6.278,6.653-12.819,16.158-12.819
	c1.036,0,1.985-0.027,2.967-0.027c-1.3-1.265-2.352-2.355-2.352-4.268c0-1.135,0.362-2.217,0.869-3.188
	c-0.518,0.037-1.044,0.064-1.587,0.064c-7.807,0-12.353-5.484-12.353-12.366c0-6.734,6.917-12.855,15.221-12.855
	c4.279,0,16.36,0,16.36,0l-3.655,3.837h-4.294C55.731,27.819,57.343,31.395,57.343,35.334z M73.286,34.322v7.548h-3.773v-7.548
	h-7.548v-3.773h7.548V23h3.773v7.549h7.549v3.773H73.286z"/>
</svg>
