<?xml version="1.0" encoding="utf-8"?>
<!-- Generator: Adobe Illustrator 15.0.0, SVG Export Plug-In . SVG Version: 6.00 Build 0)  -->
<!DOCTYPE svg PUBLIC "-//W3C//DTD SVG 1.1//EN" "http://www.w3.org/Graphics/SVG/1.1/DTD/svg11.dtd">
<svg version="1.1" id="Layer_1" xmlns="http://www.w3.org/2000/svg" xmlns:xlink="http://www.w3.org/1999/xlink" x="0px" y="0px"
	 width="100px" height="100px" viewBox="0 0 100 100" enable-background="new 0 0 100 100" xml:space="preserve">
<g>
	<path fill-rule="evenodd" clip-rule="evenodd" fill="#231F20" d="M67.047,49.999c0,9.417-7.632,17.048-17.046,17.048
		s-17.048-7.631-17.048-17.048c0-1.473,0.209-2.899,0.561-4.263H28.69v23.442c0,1.176,0.953,2.129,2.133,2.129h38.355
		c1.177,0,2.133-0.953,2.133-2.129V45.736h-4.823C66.839,47.1,67.047,48.526,67.047,49.999z"/>
	<path fill-rule="evenodd" clip-rule="evenodd" fill="#231F20" d="M69.179,28.69h-6.394c-1.176,0-2.129,0.954-2.129,2.131v6.394
		c0,1.176,0.953,2.13,2.129,2.13h6.394c1.177,0,2.133-0.954,2.133-2.13v-6.394C71.312,29.644,70.355,28.69,69.179,28.69z"/>
	<circle fill-rule="evenodd" clip-rule="evenodd" fill="#231F20" cx="50.001" cy="50" r="10.655"/>
	<path fill-rule="evenodd" clip-rule="evenodd" fill="#231F20" d="M0,0v100h100V0H0z M77.702,71.307c0,3.531-2.86,6.395-6.391,6.395
		H28.69c-3.53,0-6.393-2.863-6.393-6.395V28.69c0-3.53,2.862-6.392,6.393-6.392h42.621c3.53,0,6.391,2.862,6.391,6.392V71.307z"/>
</g>
</svg>
