<?xml version="1.0" encoding="utf-8"?>
<!-- Generator: Adobe Illustrator 17.0.0, SVG Export Plug-In . SVG Version: 6.00 Build 0)  -->
<!DOCTYPE svg PUBLIC "-//W3C//DTD SVG 1.1 Tiny//EN" "http://www.w3.org/Graphics/SVG/1.1/DTD/svg11-tiny.dtd">
<svg version="1.1" baseProfile="tiny" id="Layer_1" xmlns="http://www.w3.org/2000/svg" xmlns:xlink="http://www.w3.org/1999/xlink"
	 x="0px" y="0px" width="100px" height="100px" viewBox="0 0 100 100" xml:space="preserve">
<path fill="#231F20" d="M50,0C22.386,0,0,22.386,0,50s22.386,50,50,50s50-22.386,50-50S77.614,0,50,0z M36.697,69.639H25.465V35.846
	h11.232V69.639z M31.082,31.234h-0.074c-3.77,0-6.207-2.596-6.207-5.842c0-3.314,2.514-5.838,6.355-5.838s6.207,2.523,6.279,5.838
	C37.436,28.639,34.998,31.234,31.082,31.234z M77.201,69.639H65.969V51.561c0-4.541-1.625-7.641-5.689-7.641
	c-3.104,0-4.953,2.09-5.764,4.107c-0.297,0.721-0.371,1.73-0.371,2.74v18.871H42.912c0,0,0.148-30.621,0-33.793h11.232v4.789
	c1.494-2.303,4.162-5.582,10.123-5.582c7.391,0,12.934,4.83,12.934,15.209V69.639z"/>
</svg>
