<?xml version="1.0" encoding="utf-8"?>
<!-- Generator: Adobe Illustrator 15.0.0, SVG Export Plug-In . SVG Version: 6.00 Build 0)  -->
<!DOCTYPE svg PUBLIC "-//W3C//DTD SVG 1.1//EN" "http://www.w3.org/Graphics/SVG/1.1/DTD/svg11.dtd">
<svg version="1.1" id="Layer_1" xmlns="http://www.w3.org/2000/svg" xmlns:xlink="http://www.w3.org/1999/xlink" x="0px" y="0px"
	 width="100px" height="100px" viewBox="0 0 100 100" enable-background="new 0 0 100 100" xml:space="preserve">
<path fill="#231F20" d="M0,0v100h100V0H0z M77.945,51.809c-4.314,9.551-15.203,14.838-25.291,11.678
	c0.828,6.266-1.285,13.891-7.82,16.215c-3.119,1.109-6.523,0.609-9.482-0.734c-3.227-1.465-1.496-7.215-1.766-10.117
	c1.967,0.436,3.852,2.525,5.982,1.537c1.84-0.854,1.885-4.988,1.951-6.711c0.229-5.781-0.188-11.641-0.188-17.432
	c0-1.938,0-3.875,0-5.812c0-0.795,0-1.592,0-2.389c0-0.984,0.055-0.838,0.92-0.994c2.314-0.418,4.752-0.287,7.084-0.096
	c0.664,0.055,1.324,0.123,1.986,0.207c0.838,0.109,0.738-0.09,0.738,0.971c0,1.729,0,3.457,0,5.184c0,3.457,0,6.914,0,10.369
	c0,1.322,1.041,1.279,2.211,1.568c0.689,0.17,1.391,0.295,2.096,0.369c1.266,0.131,2.551,0.094,3.803-0.139
	c2.145-0.4,4.172-1.385,5.77-2.873c3.055-2.844,3.777-7.186,2.674-11.113c-2.666-9.482-14.58-13.318-23.371-11.096
	c-9.443,2.391-16.992,13.111-9.869,21.764c-2.131,1.906-3.967,4.176-6.455,5.648c-0.602,0.357-1.232,0.662-1.887,0.906
	c-0.367-0.398-0.707-0.818-1.023-1.258c-0.652-0.9-1.201-1.875-1.658-2.887c-2.051-4.551-2.377-9.865-1.52-14.74
	c1.396-7.934,6.398-13.824,13.76-16.881c12.26-5.088,29.844-3.01,38.506,7.824C79.721,36.561,81.018,45.008,77.945,51.809z"/>
</svg>
