<?xml version="1.0" encoding="utf-8"?>
<!-- Generator: Adobe Illustrator 17.0.0, SVG Export Plug-In . SVG Version: 6.00 Build 0)  -->
<!DOCTYPE svg PUBLIC "-//W3C//DTD SVG 1.1 Tiny//EN" "http://www.w3.org/Graphics/SVG/1.1/DTD/svg11-tiny.dtd">
<svg version="1.1" baseProfile="tiny" id="Layer_1" xmlns="http://www.w3.org/2000/svg" xmlns:xlink="http://www.w3.org/1999/xlink"
	 x="0px" y="0px" width="100px" height="100px" viewBox="0 0 100 100" xml:space="preserve">
<path fill="#231F20" d="M44.094,45.43c0,0,15.107,1.35,16.424-8.359c0,0,1.414-6.285-5.234-7.537
	c-1.02-0.191-5.002-0.658-7.338-0.264c-2.336,0.396-3.061,3.062-3.061,3.062l-2.271,9.807C42.613,42.139,41.725,44.574,44.094,45.43
	z M50,0C22.386,0,0,22.386,0,50s22.386,50,50,50s50-22.386,50-50S77.614,0,50,0z M21.734,70.875l11.182-48.258
	c0.877-3.783,4.432-3.615,4.432-3.615h17.115c23.693,0,22.371,14.725,20.469,20.932c-5.199,16.982-28.666,16.062-32.055,16.062
	c-3.391,0-4.18,3.158-4.18,3.158l-2.535,11.059c-0.689,3.885-4.211,3.686-4.211,3.686s-4.576,0-7.637,0
	C21.253,73.899,21.734,70.875,21.734,70.875z M79.357,45.096C74.156,62.08,50.691,61.158,47.303,61.158
	c-3.391,0-4.182,3.16-4.182,3.16l-2.533,11.059c-0.693,3.883-4.213,3.686-4.213,3.686s-4.574,0-7.635,0
	c-2.539,0-2.641-2.078-2.602-2.789c0.166,0.021,0.342,0.035,0.535,0.035c3.061,0,7.635,0,7.635,0s3.521,0.197,4.213-3.686
	l2.535-11.059c0,0,0.789-3.16,4.18-3.16s26.855,0.922,32.055-16.062c0.955-3.119,1.766-8.393-0.676-12.865
	C81.465,34.328,80.52,41.303,79.357,45.096z"/>
</svg>
