<?xml version="1.0" encoding="utf-8"?>
<!-- Generator: Adobe Illustrator 17.0.0, SVG Export Plug-In . SVG Version: 6.00 Build 0)  -->
<!DOCTYPE svg PUBLIC "-//W3C//DTD SVG 1.1 Tiny//EN" "http://www.w3.org/Graphics/SVG/1.1/DTD/svg11-tiny.dtd">
<svg version="1.1" baseProfile="tiny" id="Layer_1" xmlns="http://www.w3.org/2000/svg" xmlns:xlink="http://www.w3.org/1999/xlink"
	 x="0px" y="0px" width="100px" height="100px" viewBox="0 0 100 100" xml:space="preserve">
<path fill="#231F20" d="M50,0C22.386,0,0,22.386,0,50s22.386,50,50,50s50-22.386,50-50S77.614,0,50,0z M54.582,65.244
	c-3.684,0-7.148-1.992-8.335-4.253c0,0-1.98,7.86-2.4,9.378c-0.723,2.629-2.137,5.256-3.432,7.305
	c-0.246-0.106-4.028-1.467-4.028-1.467c-0.096-2.381-0.017-5.242,0.594-7.834c0.655-2.77,4.391-18.59,4.391-18.59
	s-1.092-2.179-1.092-5.398c0-5.056,2.932-8.832,6.581-8.832c3.103,0,4.603,2.332,4.603,5.122c0,3.12-1.99,7.786-3.013,12.108
	c-0.855,3.619,1.813,6.57,5.384,6.57c6.465,0,10.818-8.302,10.818-18.139c0-7.478-5.036-13.074-14.196-13.074
	c-10.349,0-16.797,7.718-16.797,16.339c0,2.972,0.876,5.068,2.249,6.691c0.632,0.745,0.72,1.046,0.491,1.901
	c-0.164,0.628-0.539,2.139-0.696,2.738c-0.226,0.863-0.927,1.173-1.707,0.854c-4.767-1.946-6.987-7.166-6.987-13.034
	c0-9.691,8.174-21.312,24.384-21.312c13.025,0,21.598,9.426,21.598,19.544C72.99,55.245,65.55,65.244,54.582,65.244z"/>
</svg>
