<?xml version="1.0" encoding="utf-8"?>
<!-- Generator: Adobe Illustrator 17.0.0, SVG Export Plug-In . SVG Version: 6.00 Build 0)  -->
<!DOCTYPE svg PUBLIC "-//W3C//DTD SVG 1.1 Tiny//EN" "http://www.w3.org/Graphics/SVG/1.1/DTD/svg11-tiny.dtd">
<svg version="1.1" baseProfile="tiny" id="Layer_1" xmlns="http://www.w3.org/2000/svg" xmlns:xlink="http://www.w3.org/1999/xlink"
	 x="0px" y="0px" width="100px" height="100px" viewBox="0 0 100 100" overflow="visible" xml:space="preserve">
<path fill="#231F20" d="M50.203,26.658c-7.459,0-13.505,7.588-13.505,16.949c0,1.201,0,5.801,0,7.002
	c0,9.361,6.046,16.949,13.505,16.949c1.078,0,2.125-0.163,3.131-0.463c-2.685-4.677-6.604-4.834-6.604-4.834v-4.79v-0.552
	c5.78-0.328,10.334,2.25,13.241,5.387c2.312-3.042,3.736-7.16,3.736-11.697c0-1.201,0-5.801,0-7.002
	C63.707,34.246,57.661,26.658,50.203,26.658z M50,0C22.386,0,0,22.386,0,50s22.386,50,50,50s50-22.386,50-50S77.614,0,50,0z
	 M70.68,75.157v4.606c-8.115,1.566-11.938-1.71-14.448-6.34C54.233,73.921,52.147,74.19,50,74.19
	c-14.602,0-26.438-12.166-26.438-27.176C23.562,32.007,35.398,19.84,50,19.84s26.438,12.167,26.438,27.175
	c0,9.77-5.018,18.332-12.547,23.121C65.476,73.83,70.68,75.157,70.68,75.157z"/>
</svg>
