<?xml version="1.0" encoding="utf-8"?>
<!-- Generator: Adobe Illustrator 17.0.0, SVG Export Plug-In . SVG Version: 6.00 Build 0)  -->
<!DOCTYPE svg PUBLIC "-//W3C//DTD SVG 1.1 Tiny//EN" "http://www.w3.org/Graphics/SVG/1.1/DTD/svg11-tiny.dtd">
<svg version="1.1" baseProfile="tiny" id="Layer_1" xmlns="http://www.w3.org/2000/svg" xmlns:xlink="http://www.w3.org/1999/xlink"
	 x="0px" y="0px" width="100px" height="100px" viewBox="0 0 100 100" overflow="visible" xml:space="preserve">
<path fill="#231F20" d="M42.548,36.952c1.976,0,3.577,1.601,3.577,3.577s-1.601,3.577-3.577,3.577s-3.577-1.601-3.577-3.577
	S40.572,36.952,42.548,36.952z M38.288,44.079c1.283,0,2.323,1.04,2.323,2.323s-1.04,2.323-2.323,2.323s-2.323-1.04-2.323-2.323
	S37.005,44.079,38.288,44.079z M50,0C22.386,0,0,22.386,0,50s22.386,50,50,50s50-22.386,50-50S77.614,0,50,0z M21.24,43.005
	c1.448-4.985,5.35-5.907,6.043-6.032c3.836-9.17,12.89-15.614,23.452-15.614c10.58,0,19.649,6.469,23.471,15.666
	c0.112,0.026,0.235,0.058,0.387,0.105V24.801c-1.357-0.555-2.313-1.887-2.313-3.443c0-2.054,1.666-3.72,3.721-3.72
	s3.719,1.666,3.719,3.72c0,1.76-1.224,3.231-2.866,3.618v13.303c1.2,0.883,2.46,2.338,3.153,4.726c0,0,1.247,6.116-0.795,7.66
	c0,0-0.998,1.427-3.892,2.526c-0.225,0.859-0.488,1.703-0.797,2.525c-1.072,0.171-2.236,0.38-3.46,0.636
	c1.776-3.13,2.788-6.71,2.788-10.515c0-12.245-10.451-22.171-23.342-22.171c-12.89,0-23.34,9.927-23.34,22.171
	c0,3.91,1.068,7.58,2.938,10.769c-1.061-0.24-2.081-0.445-3.051-0.621c-0.343-0.876-0.63-1.78-0.876-2.701
	c-0.015-0.006-0.026-0.008-0.042-0.014c-3.061-1.108-4.102-2.605-4.102-2.605C19.993,49.121,21.24,43.005,21.24,43.005z
	 M69.721,57.091C62.909,58.652,54.669,61.647,50,67.355v0.001c-4.476-5.474-12.241-8.455-18.878-10.068
	c-0.93-2.356-1.448-4.92-1.448-7.606c0-11.437,9.272-20.709,20.709-20.709s20.709,9.271,20.709,20.709
	C71.093,52.294,70.604,54.79,69.721,57.091z M81,66.76c-19.971,0.094-31,13.817-31,13.817v0.001c0,0-11.029-13.724-31-13.818v-8.346
	c0,0,22.058,0.988,31,11.923c8.942-10.934,31-11.924,31-11.924V66.76z"/>
</svg>
