<?xml version="1.0" encoding="utf-8"?>
<!-- Generator: Adobe Illustrator 15.0.0, SVG Export Plug-In . SVG Version: 6.00 Build 0)  -->
<!DOCTYPE svg PUBLIC "-//W3C//DTD SVG 1.1//EN" "http://www.w3.org/Graphics/SVG/1.1/DTD/svg11.dtd">
<svg version="1.1" id="Layer_1" xmlns="http://www.w3.org/2000/svg" xmlns:xlink="http://www.w3.org/1999/xlink" x="0px" y="0px"
	 width="100px" height="100px" viewBox="0 0 100 100" enable-background="new 0 0 100 100" xml:space="preserve">
<g>
	<circle fill="#231F20" cx="36.273" cy="45.937" r="2.723"/>
	<circle fill="#231F20" cx="41.266" cy="39.054" r="4.192"/>
	<path fill="#231F20" d="M0,0v100h100V0H0z M16.293,41.955c1.697-5.843,6.27-6.923,7.082-7.07c4.496-10.747,15.107-18.3,27.486-18.3
		c12.4,0,23.029,7.582,27.508,18.361c0.131,0.031,0.275,0.068,0.453,0.123V20.62c-1.59-0.651-2.711-2.212-2.711-4.035
		c0-2.407,1.953-4.36,4.361-4.36s4.359,1.953,4.359,4.36c0,2.063-1.434,3.787-3.359,4.24v15.591c1.406,1.035,2.883,2.74,3.695,5.539
		c0,0,1.461,7.168-0.932,8.977c0,0-1.17,1.672-4.562,2.96c-0.264,1.007-0.572,1.996-0.934,2.959c-1.256,0.2-2.621,0.445-4.055,0.745
		c2.082-3.668,3.268-7.864,3.268-12.323c0-14.351-12.248-25.984-27.357-25.984c-15.107,0-27.355,11.634-27.355,25.984
		c0,4.582,1.252,8.884,3.443,12.621c-1.244-0.281-2.439-0.521-3.576-0.728c-0.402-1.027-0.738-2.086-1.027-3.165
		c-0.018-0.007-0.031-0.01-0.049-0.017c-3.588-1.299-4.807-3.053-4.807-3.053C14.832,49.123,16.293,41.955,16.293,41.955z
		 M73.113,58.464c-7.984,1.83-17.641,5.34-23.113,12.03v0.001c-5.246-6.415-14.346-9.909-22.125-11.8
		c-1.09-2.761-1.697-5.766-1.697-8.914c0-13.404,10.867-24.271,24.271-24.271s24.271,10.866,24.271,24.271
		C74.721,52.842,74.148,55.767,73.113,58.464z M86.332,69.796C62.926,69.906,50,85.99,50,85.99v0.001
		c0,0-12.926-16.084-36.332-16.195v-9.781c0,0,25.852,1.158,36.332,13.974c10.48-12.815,36.332-13.975,36.332-13.975V69.796z"/>
</g>
</svg>
