<?xml version="1.0" encoding="utf-8"?>
<!-- Generator: Adobe Illustrator 17.0.0, SVG Export Plug-In . SVG Version: 6.00 Build 0)  -->
<!DOCTYPE svg PUBLIC "-//W3C//DTD SVG 1.1 Tiny//EN" "http://www.w3.org/Graphics/SVG/1.1/DTD/svg11-tiny.dtd">
<svg version="1.1" baseProfile="tiny" id="Layer_1" xmlns="http://www.w3.org/2000/svg" xmlns:xlink="http://www.w3.org/1999/xlink"
	 x="0px" y="0px" width="100px" height="100px" viewBox="0 0 100 100" overflow="visible" xml:space="preserve">
<path fill="#231F20" d="M60.08,63.413c-0.018-0.026-0.033-0.048-0.051-0.072c-0.09-0.153-0.195-0.238-0.195-0.238v0.002
	c-0.799-0.818-1.826-0.068-2.67,0.541c-1.115,0.799-2.23,1.218-3.578,1.45c-2.812,0.491-5.905,0.415-8.654-0.389
	c-0.927-0.271-1.808-0.651-2.57-1.252c-0.368-0.292-0.77-0.698-1.252-0.787c-0.449-0.081-0.807,0.225-1.073,0.558
	c-0.005,0.005-0.007,0.009-0.014,0.016c-0.046,0.056-0.088,0.114-0.127,0.17c0,0.023-0.002,0.044-0.004,0.067
	c-0.056,0.169-0.085,0.414,0.033,0.732c0.03,0.09,0.072,0.176,0.144,0.255c0.178,0.206,0.366,0.399,0.567,0.582
	c0.41,0.368,0.862,0.69,1.341,0.961c0.633,0.359,1.311,0.633,2.005,0.857v0.009c0,0,1.392,0.515,3.632,0.762
	c0.007,0,0.011,0.004,0.014,0.004c0.002,0,0.004,0,0.004,0c1.25,0.135,2.759,0.183,4.442,0.013c0.148-0.007,0.294-0.016,0.44-0.033
	c0.364-0.051,0.729-0.105,1.088-0.169c0.055-0.013,0.111-0.024,0.168-0.033c0.234-0.042,0.471-0.085,0.704-0.135
	c0.055-0.013,0.105-0.03,0.16-0.042c0.042-0.009,0.083-0.013,0.123-0.024v-0.004c1.123-0.262,2.234-0.63,3.238-1.2
	c0.517-0.294,1.005-0.644,1.44-1.054c0.078-0.072,0.142-0.151,0.216-0.229c0.059-0.05,0.118-0.105,0.181-0.181
	c0.023-0.026,0.039-0.051,0.059-0.076c0.032-0.039,0.068-0.068,0.102-0.105c0.046-0.059,0.072-0.135,0.088-0.22
	c0.109-0.285,0.072-0.521-0.004-0.696C60.08,63.439,60.08,63.421,60.08,63.413z M44.867,52.111c0-2.319-1.878-4.197-4.195-4.197
	c-2.318,0-4.195,1.878-4.195,4.197c0,2.314,1.878,4.192,4.195,4.192C42.989,56.303,44.867,54.426,44.867,52.111z M59.347,47.914
	c-2.318,0-4.195,1.878-4.195,4.197c0,2.314,1.878,4.192,4.195,4.192c2.316,0,4.194-1.878,4.194-4.192
	C63.541,49.792,61.663,47.914,59.347,47.914z M50,0C22.386,0,0,22.386,0,50s22.386,50,50,50s50-22.386,50-50S77.614,0,50,0z
	 M77.386,53.529c0.096,0.633,0.151,1.272,0.151,1.918c0,10.216-12.501,18.502-27.919,18.502c-15.424,0-27.922-8.285-27.922-18.502
	c0-0.79,0.102-1.566,0.244-2.332c-1.772-1.283-2.939-3.356-2.939-5.715c0-3.902,3.165-7.066,7.064-7.066
	c1.706,0,3.247,0.63,4.47,1.636c4.975-3.092,11.644-5.004,19.002-5.017l4.886-13.76l10.935,2.518
	c0.848-2.235,2.995-3.831,5.528-3.831c3.274,0,5.927,2.655,5.927,5.929s-2.654,5.925-5.927,5.925c-3.205,0-5.796-2.545-5.908-5.718
	l-8.84-2.273l-4.076,11.289c6.626,0.384,12.591,2.291,17.08,5.204c1.261-1.171,2.939-1.902,4.795-1.902
	c3.9,0,7.064,3.165,7.064,7.066C81.001,50.042,79.531,52.318,77.386,53.529z"/>
</svg>
