<?xml version="1.0" encoding="utf-8"?>
<!-- Generator: Adobe Illustrator 15.0.0, SVG Export Plug-In . SVG Version: 6.00 Build 0)  -->
<!DOCTYPE svg PUBLIC "-//W3C//DTD SVG 1.1//EN" "http://www.w3.org/Graphics/SVG/1.1/DTD/svg11.dtd">
<svg version="1.1" id="Layer_1" xmlns="http://www.w3.org/2000/svg" xmlns:xlink="http://www.w3.org/1999/xlink" x="0px" y="0px"
	 width="100px" height="100px" viewBox="0 0 100 100" enable-background="new 0 0 100 100" xml:space="preserve">
<g>
	<path fill="#231F20" d="M44.303,52.572c0-2.574-2.084-4.658-4.656-4.658s-4.656,2.084-4.656,4.658c0,2.568,2.084,4.652,4.656,4.652
		S44.303,55.141,44.303,52.572z"/>
	<path fill="#231F20" d="M60.373,47.914c-2.572,0-4.656,2.084-4.656,4.658c0,2.568,2.084,4.652,4.656,4.652
		c2.57,0,4.654-2.084,4.654-4.652C65.027,49.998,62.943,47.914,60.373,47.914z"/>
	<path fill="#231F20" d="M61.186,65.115c-0.02-0.029-0.037-0.053-0.057-0.08c-0.1-0.17-0.217-0.264-0.217-0.264v0.002
		c-0.887-0.908-2.027-0.076-2.963,0.6c-1.238,0.887-2.475,1.352-3.971,1.609c-3.121,0.545-6.553,0.461-9.604-0.432
		c-1.029-0.301-2.006-0.723-2.852-1.389c-0.408-0.324-0.854-0.775-1.389-0.873c-0.498-0.09-0.896,0.25-1.191,0.619
		c-0.006,0.006-0.008,0.01-0.016,0.018c-0.051,0.062-0.098,0.127-0.141,0.189c0,0.025-0.002,0.049-0.004,0.074
		c-0.062,0.188-0.094,0.459,0.037,0.812c0.033,0.1,0.08,0.195,0.16,0.283c0.197,0.229,0.406,0.443,0.629,0.646
		c0.455,0.408,0.957,0.766,1.488,1.066c0.703,0.398,1.455,0.703,2.225,0.951v0.01c0,0,1.545,0.572,4.031,0.846
		c0.008,0,0.012,0.004,0.016,0.004c0.002,0,0.004,0,0.004,0c1.387,0.15,3.062,0.203,4.93,0.014c0.164-0.008,0.326-0.018,0.488-0.037
		c0.404-0.057,0.809-0.117,1.207-0.188c0.061-0.014,0.123-0.027,0.186-0.037c0.26-0.047,0.523-0.094,0.781-0.15
		c0.061-0.014,0.117-0.033,0.178-0.047c0.047-0.01,0.092-0.014,0.137-0.027V69.33c1.246-0.291,2.479-0.699,3.594-1.332
		c0.574-0.326,1.115-0.715,1.598-1.17c0.086-0.08,0.158-0.168,0.24-0.254c0.066-0.055,0.131-0.117,0.201-0.201
		c0.025-0.029,0.043-0.057,0.066-0.084c0.035-0.043,0.076-0.076,0.113-0.117c0.051-0.066,0.08-0.15,0.098-0.244
		c0.121-0.316,0.08-0.578-0.004-0.773C61.186,65.143,61.186,65.123,61.186,65.115z"/>
	<path fill="#231F20" d="M0,0v100h100V0H0z M80.393,54.145c0.107,0.703,0.168,1.412,0.168,2.129
		c0,11.338-13.873,20.533-30.984,20.533c-17.117,0-30.988-9.195-30.988-20.533c0-0.877,0.113-1.738,0.271-2.588
		c-1.967-1.424-3.262-3.725-3.262-6.342c0-4.33,3.512-7.842,7.84-7.842c1.893,0,3.604,0.699,4.961,1.816
		c5.521-3.432,12.922-5.553,21.088-5.568l5.422-15.271l12.135,2.795c0.941-2.48,3.324-4.252,6.135-4.252
		c3.633,0,6.578,2.947,6.578,6.58s-2.945,6.576-6.578,6.576c-3.557,0-6.432-2.824-6.557-6.346l-9.811-2.523l-4.523,12.529
		c7.354,0.426,13.973,2.543,18.955,5.775c1.4-1.299,3.262-2.111,5.322-2.111c4.328,0,7.84,3.512,7.84,7.842
		C84.404,50.275,82.773,52.801,80.393,54.145z"/>
</g>
</svg>
