<?xml version="1.0" encoding="utf-8"?>
<!-- Generator: Adobe Illustrator 17.0.0, SVG Export Plug-In . SVG Version: 6.00 Build 0)  -->
<!DOCTYPE svg PUBLIC "-//W3C//DTD SVG 1.1 Tiny//EN" "http://www.w3.org/Graphics/SVG/1.1/DTD/svg11-tiny.dtd">
<svg version="1.1" baseProfile="tiny" id="Layer_1" xmlns="http://www.w3.org/2000/svg" xmlns:xlink="http://www.w3.org/1999/xlink"
	 x="0px" y="0px" width="100px" height="100px" viewBox="0 0 100 100" xml:space="preserve">
<path fill="#231F20" d="M60.083,49.863c-1.111-0.732-2.457-1.352-4.035-1.861c-1.576-0.51-3.334-0.975-5.275-1.396
	c-1.545-0.361-2.654-0.637-3.324-0.824c-0.664-0.186-1.322-0.445-1.971-0.775c-0.645-0.328-1.148-0.717-1.512-1.166
	c-0.357-0.443-0.533-0.965-0.535-1.578c0.002-0.986,0.52-1.824,1.602-2.549c1.076-0.715,2.502-1.076,4.283-1.076
	c1.93-0.002,3.311,0.336,4.152,0.986c0.857,0.662,1.6,1.588,2.217,2.777c0.49,0.852,0.945,1.467,1.377,1.848
	c0.443,0.396,1.08,0.588,1.893,0.588c0.902,0,1.672-0.324,2.277-0.961c0.604-0.633,0.912-1.359,0.912-2.158
	c0-0.861-0.24-1.744-0.717-2.643c-0.479-0.9-1.236-1.758-2.26-2.57c-1.029-0.814-2.322-1.467-3.871-1.955
	c-1.555-0.49-3.391-0.734-5.508-0.734c-2.652,0-4.967,0.369-6.938,1.105c-1.971,0.738-3.482,1.799-4.529,3.182
	s-1.572,2.969-1.572,4.748c0,1.859,0.496,3.43,1.49,4.693c0.992,1.254,2.33,2.244,4.01,2.969c1.674,0.723,3.746,1.352,6.221,1.891
	c1.846,0.391,3.316,0.758,4.41,1.105c1.092,0.344,1.973,0.838,2.654,1.484c0.67,0.639,1.006,1.459,1.006,2.492
	c0,1.295-0.617,2.365-1.883,3.244c-1.266,0.875-2.918,1.316-4.965,1.316c-1.492,0-2.686-0.219-3.586-0.65
	c-0.906-0.436-1.605-0.986-2.102-1.652c-0.502-0.672-0.971-1.512-1.406-2.52c-0.363-0.867-0.805-1.527-1.332-1.979
	c-0.527-0.453-1.182-0.682-1.939-0.682c-0.928,0-1.711,0.291-2.318,0.869c-0.607,0.578-0.916,1.285-0.916,2.098
	c0,1.377,0.498,2.789,1.488,4.23c0.984,1.443,2.27,2.6,3.848,3.463c2.227,1.201,5.047,1.797,8.451,1.797
	c2.842,0,5.303-0.438,7.385-1.314c2.079-0.875,3.667-2.092,4.749-3.65c1.086-1.557,1.629-3.314,1.629-5.266
	c0-1.623-0.311-3.002-0.941-4.135C62.077,51.529,61.202,50.595,60.083,49.863z M50,0C22.386,0,0,22.386,0,50s22.386,50,50,50
	s50-22.386,50-50S77.614,0,50,0z M61.981,77.995c-2.98,0-5.76-0.844-8.121-2.301c-1.299,0.203-2.635,0.312-3.992,0.312
	c-14.132,0-25.587-11.457-25.587-25.588c0-1.359,0.107-2.691,0.311-3.992c-1.457-2.361-2.301-5.141-2.301-8.119
	c0-8.541,6.924-15.467,15.465-15.467c2.979,0,5.758,0.846,8.117,2.303c1.303-0.203,2.635-0.312,3.994-0.312
	c14.133,0,25.588,11.457,25.588,25.588c0,1.357-0.107,2.689-0.312,3.992c1.459,2.359,2.301,5.139,2.301,8.119
	C77.444,71.071,70.522,77.995,61.981,77.995z"/>
</svg>
