<?xml version="1.0" encoding="utf-8"?>
<!-- Generator: Adobe Illustrator 17.0.0, SVG Export Plug-In . SVG Version: 6.00 Build 0)  -->
<!DOCTYPE svg PUBLIC "-//W3C//DTD SVG 1.1 Tiny//EN" "http://www.w3.org/Graphics/SVG/1.1/DTD/svg11-tiny.dtd">
<svg version="1.1" baseProfile="tiny" id="Layer_1" xmlns="http://www.w3.org/2000/svg" xmlns:xlink="http://www.w3.org/1999/xlink"
	 x="0px" y="0px" width="100px" height="100px" viewBox="0 0 100 100" xml:space="preserve">
<path fill="#231F20" d="M50,0C22.386,0,0,22.386,0,50s22.386,50,50,50s50-22.386,50-50S77.614,0,50,0z M14.807,58.206
	c-0.023,0.161-0.139,0.273-0.281,0.273c-0.147,0-0.263-0.113-0.282-0.275l-0.514-3.841l0.514-3.907
	c0.019-0.162,0.135-0.276,0.282-0.276c0.142,0,0.259,0.113,0.281,0.274l0.61,3.909L14.807,58.206z M17.419,60.544
	c-0.024,0.167-0.144,0.284-0.292,0.284c-0.149,0-0.273-0.12-0.293-0.285l-0.692-6.178c0,0,0.692-6.317,0.692-6.318
	c0.02-0.164,0.143-0.284,0.293-0.284c0.148,0,0.268,0.116,0.293,0.284l0.786,6.318L17.419,60.544z M20.242,61.589
	c-0.021,0.2-0.169,0.344-0.352,0.344c-0.185,0-0.334-0.145-0.352-0.346l-0.657-7.222c0,0,0.657-7.496,0.657-7.496
	c0.018-0.2,0.167-0.345,0.352-0.345c0.183,0,0.331,0.145,0.353,0.345l0.746,7.496L20.242,61.589z M23.089,61.818
	c-0.019,0.231-0.196,0.405-0.412,0.405c-0.218,0-0.396-0.174-0.413-0.405l-0.621-7.451l0.621-7.702
	c0.017-0.232,0.195-0.406,0.413-0.406c0.216,0,0.393,0.174,0.412,0.405l0.705,7.703L23.089,61.818z M25.958,61.881
	c-0.019,0.265-0.222,0.465-0.472,0.465c-0.254,0-0.457-0.201-0.473-0.465l-0.585-7.513l0.585-7.145
	c0.016-0.266,0.219-0.466,0.473-0.466c0.251,0,0.454,0.199,0.472,0.463l0.664,7.148L25.958,61.881z M28.85,61.883v-0.002
	c-0.017,0.295-0.251,0.527-0.533,0.527c-0.284,0-0.518-0.232-0.532-0.525l-0.55-7.512l0.55-11.624
	c0.014-0.296,0.248-0.528,0.532-0.528c0.282,0,0.516,0.232,0.533,0.528l0.623,11.624L28.85,61.883z M31.765,61.834
	c-0.016,0.33-0.276,0.587-0.593,0.587c-0.319,0-0.579-0.258-0.593-0.584l-0.515-7.465c0,0,0.514-14.282,0.514-14.283
	c0.014-0.33,0.274-0.587,0.593-0.587c0.316,0,0.577,0.258,0.593,0.587l0.581,14.283L31.765,61.834z M34.702,61.759
	c-0.015,0.364-0.301,0.647-0.652,0.647c-0.355,0-0.641-0.284-0.653-0.644l-0.479-7.389c0,0,0.479-15.474,0.479-15.475
	c0.012-0.364,0.298-0.648,0.653-0.648c0.352,0,0.638,0.284,0.652,0.647l0.54,15.475L34.702,61.759z M37.661,61.714L37.661,61.714
	c-0.013,0.396-0.325,0.707-0.712,0.707c-0.389,0-0.702-0.311-0.712-0.704l-0.444-7.343l0.443-15.996
	c0.011-0.398,0.324-0.709,0.713-0.709c0.387,0,0.7,0.311,0.712,0.709l0.5,15.997L37.661,61.714z M40.644,61.65v-0.005
	c-0.011,0.431-0.351,0.769-0.772,0.769c-0.424,0-0.764-0.338-0.773-0.766l-0.409-7.273l0.408-15.589
	c0.01-0.431,0.349-0.768,0.774-0.768c0.421,0,0.761,0.337,0.772,0.768l0.459,15.589L40.644,61.65z M43.649,61.604v-0.006
	c-0.01,0.465-0.375,0.829-0.832,0.829c-0.458,0-0.825-0.364-0.833-0.824l-0.372-7.227l0.372-15.019
	c0.009-0.466,0.375-0.83,0.833-0.83c0.457,0,0.822,0.364,0.832,0.828l0.417,15.021L43.649,61.604z M46.677,61.553
	c-0.009,0.49-0.409,0.889-0.893,0.889c-0.485,0-0.885-0.399-0.893-0.884c0,0-0.337-7.174-0.337-7.185l0.337-17.867
	c0.007-0.491,0.408-0.89,0.893-0.89c0.484,0,0.884,0.399,0.893,0.889l0.377,17.874L46.677,61.553z M49.691,61.455v-0.008
	c-0.007,0.524-0.434,0.95-0.952,0.95c-0.519,0-0.947-0.426-0.953-0.943l-0.391-7.075l0.39-19.493
	c0.007-0.524,0.434-0.951,0.954-0.951c0.518,0,0.945,0.427,0.952,0.949l0.424,19.495L49.691,61.455z M75.429,62.461
	c-0.154,0-23.964-0.012-23.987-0.014c-0.517-0.052-0.928-0.493-0.935-1.023V33.96c0.006-0.505,0.18-0.765,0.833-1.017
	c1.681-0.65,3.583-1.034,5.536-1.034c7.977,0,14.517,6.118,15.206,13.916c1.03-0.431,2.161-0.672,3.347-0.672
	c4.779,0,8.653,3.874,8.653,8.654S80.208,62.461,75.429,62.461z"/>
</svg>
