<?xml version="1.0" encoding="utf-8"?>
<!-- Generator: Adobe Illustrator 17.0.0, SVG Export Plug-In . SVG Version: 6.00 Build 0)  -->
<!DOCTYPE svg PUBLIC "-//W3C//DTD SVG 1.1 Tiny//EN" "http://www.w3.org/Graphics/SVG/1.1/DTD/svg11-tiny.dtd">
<svg version="1.1" baseProfile="tiny" id="Layer_1" xmlns="http://www.w3.org/2000/svg" xmlns:xlink="http://www.w3.org/1999/xlink"
	 x="0px" y="0px" width="100px" height="100px" viewBox="0 0 100 100" xml:space="preserve">
<path fill="#231F20" d="M50,0C22.386,0,0,22.386,0,50s22.386,50,50,50s50-22.386,50-50S77.614,0,50,0z M71.972,69.492
	c-0.414,1.317-1.62,2.212-2.985,2.112c-0.509-0.037-1.059-0.197-1.495-0.46c-5.361-3.24-11.168-5.178-17.36-5.983
	c-4.18-0.543-8.374-0.561-12.574-0.215c-3.722,0.306-7.389,0.951-11.038,1.721c-1.644,0.347-3.164-0.616-3.559-2.193
	c-0.417-1.663,0.54-3.482,2.178-3.849c2.378-0.534,4.775-0.998,7.182-1.374c3.503-0.547,7.034-0.826,9.589-0.807
	c8.726-0.004,16.201,1.296,23.278,4.494c1.871,0.845,3.673,1.854,5.458,2.874C71.879,66.515,72.397,68.14,71.972,69.492z
	 M77.87,56.229c-0.318,1.582-1.53,2.709-3.244,2.985c-0.852,0.137-1.65-0.081-2.376-0.518c-6.725-4.053-14.063-6.256-21.807-7.215
	c-8.347-1.033-16.593-0.613-24.7,1.773c-2.053,0.604-4.066-0.537-4.656-2.555c-0.593-2.029,0.532-4.215,2.549-4.834
	c3.479-1.067,7.033-1.806,10.652-2.166c2.658-0.265,5.329-0.399,6.755-0.502c10.665,0.096,19.79,1.697,28.458,5.477
	c2.231,0.973,4.369,2.172,6.504,3.348C77.468,52.827,78.194,54.62,77.87,56.229z M84.396,41.307
	c-0.347,1.793-1.792,3.189-3.676,3.514c-1.041,0.179-2.032-0.016-2.942-0.55c-6.218-3.647-13.004-5.611-20.055-6.805
	c-5.859-0.992-11.762-1.329-17.691-1.113c-5.545,0.202-11.028,0.894-16.374,2.467c-2.511,0.739-4.972-0.551-5.685-2.935
	c-0.741-2.477,0.603-5.049,3.088-5.818c3.681-1.139,7.455-1.874,11.28-2.26c3.606-0.363,7.23-0.542,9.067-0.674
	c11.678,0.089,21.381,1.349,30.769,4.583c3.52,1.212,6.911,2.72,10.112,4.633C83.93,37.327,84.773,39.358,84.396,41.307z"/>
</svg>
