<?xml version="1.0" encoding="utf-8"?>
<!-- Generator: Adobe Illustrator 17.0.0, SVG Export Plug-In . SVG Version: 6.00 Build 0)  -->
<!DOCTYPE svg PUBLIC "-//W3C//DTD SVG 1.1 Tiny//EN" "http://www.w3.org/Graphics/SVG/1.1/DTD/svg11-tiny.dtd">
<svg version="1.1" baseProfile="tiny" id="Layer_1" xmlns="http://www.w3.org/2000/svg" xmlns:xlink="http://www.w3.org/1999/xlink"
	 x="0px" y="0px" width="100px" height="100px" viewBox="0 0 100 100" xml:space="preserve">
<path fill="#231F20" d="M50,0C22.386,0,0,22.386,0,50s22.386,50,50,50s50-22.386,50-50S77.614,0,50,0z M66.053,24.697
	c1.213,1.276,1.156,3.343-0.092,4.6c-1.268,1.274-3.318,1.274-4.588,0l-0.307-0.356c-2.547-2.171-6.369-2.048-8.773,0.371
	l-20.639,20.76c-1.359,1.261-3.412,1.261-4.678-0.014c-1.268-1.272-1.268-3.339,0-4.613c0.17-0.17,0.352-0.316,0.545-0.44
	l20.186-20.307C52.775,19.602,60.988,19.602,66.053,24.697z M20.188,56.992c-5.066-5.097-5.066-13.357,0-18.455l14.984-15.165
	c2.533-2.549,6.643-2.549,9.174,0L24.775,43.15c-2.535,2.549-2.535,6.682,0,9.228c2.533,2.55,6.639,2.55,9.172,0l20.107-20.224
	c0.123-0.195,0.27-0.381,0.439-0.549c1.266-1.276,3.32-1.276,4.586,0c1.268,1.271,1.268,3.338,0,4.612L38.533,56.992
	C33.471,62.089,25.254,62.089,20.188,56.992z M34.373,71.245c-0.184-0.123-0.355-0.265-0.518-0.428c-1.266-1.271-1.266-3.339,0-4.61
	c1.268-1.274,3.32-1.274,4.586,0l0.092,0.013c2.533,2.548,6.641,2.548,9.174,0l20.105-20.225c0.125-0.195,0.273-0.379,0.441-0.551
	c1.268-1.272,3.318-1.272,4.586,0c1.266,1.274,1.266,3.341,0,4.613L52.293,70.833C47.367,75.788,39.467,75.924,34.373,71.245z
	 M79.812,56.992L64.828,72.158c-2.533,2.547-6.639,2.547-9.174,0l19.57-19.78c2.537-2.546,2.537-6.679,0-9.228
	c-2.531-2.548-6.639-2.548-9.172,0L45.414,63.913c-1.359,1.259-3.412,1.259-4.678-0.015c-1.268-1.272-1.268-3.341,0-4.612
	c0.168-0.17,0.352-0.316,0.543-0.443l20.188-20.306c5.066-5.094,13.281-5.094,18.346,0C84.877,43.635,84.877,51.896,79.812,56.992z"
	/>
</svg>
