<?xml version="1.0" encoding="utf-8"?>
<!-- Generator: Adobe Illustrator 17.0.0, SVG Export Plug-In . SVG Version: 6.00 Build 0)  -->
<!DOCTYPE svg PUBLIC "-//W3C//DTD SVG 1.1 Tiny//EN" "http://www.w3.org/Graphics/SVG/1.1/DTD/svg11-tiny.dtd">
<svg version="1.1" baseProfile="tiny" id="Layer_1" xmlns="http://www.w3.org/2000/svg" xmlns:xlink="http://www.w3.org/1999/xlink"
	 x="0px" y="0px" width="100px" height="100px" viewBox="0 0 100 100" xml:space="preserve">
<path fill="#231F20" d="M50,0C22.386,0,0,22.386,0,50s22.386,50,50,50s50-22.386,50-50S77.614,0,50,0z M67.756,75.02
	c-2.416,1.133-4.605,1.934-6.566,2.395c-1.963,0.455-4.082,0.686-6.357,0.686c-2.584,0-4.111-0.324-6.098-0.975
	c-1.988-0.658-3.684-1.594-5.084-2.793c-1.406-1.211-2.377-2.498-2.92-3.859c-0.541-1.357-0.812-3.336-0.812-5.924V44.711h-7.686
	v-8.012c2.221-0.719,4.799-1.754,6.381-3.102c1.588-1.35,2.855-2.967,3.816-4.855s1.621-4.295,1.98-7.211h8.047v13.084h13.078
	v10.096H52.457v14.506c0,3.281-0.045,5.172,0.305,6.105c0.346,0.924,1.211,1.885,2.154,2.441c1.256,0.748,2.68,1.123,4.293,1.123
	c2.865,0,5.713-0.93,8.547-2.791V75.02z"/>
</svg>
