<?xml version="1.0" encoding="utf-8"?>
<!-- Generator: Adobe Illustrator 15.0.0, SVG Export Plug-In . SVG Version: 6.00 Build 0)  -->
<!DOCTYPE svg PUBLIC "-//W3C//DTD SVG 1.1//EN" "http://www.w3.org/Graphics/SVG/1.1/DTD/svg11.dtd">
<svg version="1.1" id="Layer_1" xmlns="http://www.w3.org/2000/svg" xmlns:xlink="http://www.w3.org/1999/xlink" x="0px" y="0px"
	 width="100px" height="100px" viewBox="0 0 100 100" enable-background="new 0 0 100 100" xml:space="preserve">
<path fill="#231F20" d="M0,0v100h100V0H0z M74.666,39.556c0.023,0.547,0.037,1.096,0.037,1.646
	c0,16.818-12.801,36.211-36.211,36.211c-7.188,0-13.877-2.106-19.51-5.717c0.996,0.116,2.01,0.177,3.037,0.177
	c5.963,0,11.449-2.034,15.807-5.448c-5.57-0.102-10.271-3.782-11.891-8.838c0.777,0.148,1.574,0.229,2.395,0.229
	c1.162,0,2.285-0.156,3.354-0.447c-5.822-1.169-10.209-6.313-10.209-12.479c0-0.053,0-0.106,0-0.16
	c1.717,0.954,3.68,1.526,5.766,1.593c-3.416-2.282-5.662-6.178-5.662-10.594c0-2.332,0.627-4.52,1.723-6.398
	c6.277,7.699,15.656,12.768,26.234,13.299c-0.219-0.933-0.332-1.904-0.332-2.901C49.203,32.698,54.904,27,61.932,27
	c3.66,0,6.969,1.545,9.289,4.02c2.9-0.571,5.623-1.63,8.082-3.089c-0.949,2.972-2.969,5.467-5.596,7.041
	c2.574-0.308,5.027-0.992,7.309-2.004C79.311,35.52,77.152,37.762,74.666,39.556z"/>
</svg>
