<?xml version="1.0" encoding="utf-8"?>
<!-- Generator: Adobe Illustrator 17.0.0, SVG Export Plug-In . SVG Version: 6.00 Build 0)  -->
<!DOCTYPE svg PUBLIC "-//W3C//DTD SVG 1.1 Tiny//EN" "http://www.w3.org/Graphics/SVG/1.1/DTD/svg11-tiny.dtd">
<svg version="1.1" baseProfile="tiny" id="Layer_1" xmlns="http://www.w3.org/2000/svg" xmlns:xlink="http://www.w3.org/1999/xlink"
	 x="0px" y="0px" width="100px" height="100px" viewBox="0 0 100 100" overflow="visible" xml:space="preserve">
<path fill="#231F20" d="M50,0C22.386,0,0,22.386,0,50s22.386,50,50,50s50-22.386,50-50S77.614,0,50,0z M75.711,38.898
	c-0.25,5.305-3.953,12.559-11.127,21.77c-7.414,9.619-13.701,14.43-18.836,14.43c-3.176,0-5.873-2.938-8.062-8.807
	c-1.473-5.379-2.945-10.76-4.41-16.143c-1.629-5.865-3.385-8.801-5.264-8.801c-0.396,0-1.83,0.854-4.277,2.566l-2.566-3.299
	c2.693-2.363,5.342-4.73,7.957-7.096c3.586-3.094,6.271-4.725,8.064-4.893c4.238-0.406,6.844,2.49,7.832,8.686
	c1.051,6.688,1.787,10.842,2.197,12.475c1.227,5.541,2.566,8.314,4.043,8.314c1.135,0,2.846-1.793,5.133-5.383
	c2.279-3.586,3.502-6.316,3.664-8.193c0.326-3.1-0.896-4.646-3.664-4.646c-1.312,0-2.658,0.289-4.041,0.857
	c2.688-8.725,7.822-12.963,15.408-12.719C73.391,28.182,76.039,31.811,75.711,38.898z"/>
</svg>
