<?xml version="1.0" encoding="utf-8"?>
<!-- Generator: Adobe Illustrator 17.0.0, SVG Export Plug-In . SVG Version: 6.00 Build 0)  -->
<!DOCTYPE svg PUBLIC "-//W3C//DTD SVG 1.1 Tiny//EN" "http://www.w3.org/Graphics/SVG/1.1/DTD/svg11-tiny.dtd">
<svg version="1.1" baseProfile="tiny" id="Layer_1" xmlns="http://www.w3.org/2000/svg" xmlns:xlink="http://www.w3.org/1999/xlink"
	 x="0px" y="0px" width="100px" height="100px" viewBox="0 0 100 100" xml:space="preserve">
<path fill="#231F20" d="M61.917,46.446c-6.098-0.062-10.166,4.037-10.158,10.232c0.008,6.167,4.069,10.585,9.851,10.719
	c5.801,0.134,10.5-4.739,10.379-10.763C71.879,51.111,67.321,46.501,61.917,46.446z M50,0C22.386,0,0,22.386,0,50s22.386,50,50,50
	s50-22.386,50-50S77.614,0,50,0z M77.708,64.822c-3.342,6.433-9.023,9.237-15.361,9.454c-8.385-0.052-15.025-4.218-17.305-11.23
	c-1.1-3.383-2.863-2.843-5.321-2.534c-8.792,1.103-16.456-4.082-18.794-12.534c-2.327-8.411,1.611-17.228,9.532-20.542
	c6.462-2.704,12.826-2.293,18.702,1.88c1.052,0.747,2.108,1.693,1.298,2.75c-0.126,0.164-1.677,2.158-2.3,2.943
	c-0.674,0.848-1.547,1.304-3.156,0.202c-3.485-2.388-7.186-3.204-11.095-1.522c-4.947,2.128-7.174,8.773-4.912,14.011
	c2.177,5.043,7.711,7.307,12.962,5.38c2.046-0.75,2.846-2.396,3.775-4.185c4.575-8.809,15.841-11.986,25.021-7.182
	C79.007,46.031,82.176,56.222,77.708,64.822z"/>
</svg>
