<?xml version="1.0" encoding="utf-8"?>
<!-- Generator: Adobe Illustrator 17.0.0, SVG Export Plug-In . SVG Version: 6.00 Build 0)  -->
<!DOCTYPE svg PUBLIC "-//W3C//DTD SVG 1.1 Tiny//EN" "http://www.w3.org/Graphics/SVG/1.1/DTD/svg11-tiny.dtd">
<svg version="1.1" baseProfile="tiny" id="Layer_1" xmlns="http://www.w3.org/2000/svg" xmlns:xlink="http://www.w3.org/1999/xlink"
	 x="0px" y="0px" width="100px" height="100px" viewBox="0 0 100 100" xml:space="preserve">
<path fill="#231F20" d="M67.359,22.031c-4.867-3.027-10.586-4.826-16.711-4.949c-0.215,0-0.432-0.012-0.648-0.012
	c-7.084,0-13.654,2.258-19.021,6.07c-8.355,5.961-13.816,15.736-13.816,26.768s5.461,20.807,13.816,26.77
	c5.367,3.812,11.938,6.07,19.021,6.07c0.217,0,0.434-0.014,0.648-0.014c6.125-0.121,11.844-1.92,16.711-4.949
	c9.287-5.799,15.48-16.129,15.48-27.877C82.839,38.16,76.646,27.846,67.359,22.031z M30.979,26.695
	C36.17,22.438,42.781,19.896,50,19.896c0.217,0,0.434,0,0.648,0c6.219,0.135,11.965,2.162,16.711,5.529
	c1.027,0.729,2.016,1.525,2.947,2.379c-1.041-0.027-2.068,0.203-2.947,0.703c-1.352,0.771-2.338,2.203-2.393,4.352
	c-0.094,2.719,1.107,4.625,2.393,6.721c2.109,3.488,4.434,7.488,1.461,16.521l-1.461,4.447l-2.486,7.543L54.137,36.484
	c-0.162-0.486,0.027-0.758,0.637-0.758h3.027c0.162,0,0.299-0.135,0.299-0.311v-1.797c0-0.164-0.137-0.299-0.299-0.299
	c-2.379,0.107-4.771,0.176-7.152,0.189c-3.324,0.027-6.65-0.041-9.963-0.189c-0.162,0-0.283,0.135-0.283,0.299v1.797
	c0,0.176,0.121,0.311,0.283,0.311h3.057c0.674,0,0.865,0.217,1.027,0.662l4.406,12.061l-6.639,20.008L31.641,36.361
	c-0.135-0.404,0.027-0.635,0.406-0.635h3.488c0.148,0,0.283-0.135,0.283-0.311v-1.797c0-0.164-0.135-0.299-0.283-0.299
	c-1.527,0.082-3.043,0.135-4.557,0.176c-2.109,0.055-4.178,0.08-6.164,0.094C26.504,30.98,28.586,28.656,30.979,26.695z
	 M30.979,73.121c-6.705-5.502-10.99-13.857-10.99-23.213c0-4.434,0.959-8.652,2.689-12.438l8.301,22.686l6.178,16.885
	C34.939,75.988,32.871,74.676,30.979,73.121z M50.648,79.922c-0.215,0-0.432,0-0.648,0c-3.027,0-5.961-0.447-8.719-1.285
	l9.234-26.512l0.133,0.393l9.396,25.674C57.098,79.246,53.947,79.842,50.648,79.922z M76.404,35.619
	c2.297,4.244,3.609,9.125,3.609,14.289c0,10.1-5.002,19.051-12.654,24.484c-0.947,0.676-1.932,1.297-2.961,1.852l2.961-8.355
	l6.408-18.156C75.215,45.637,76.566,40.08,76.404,35.619z M50,0C22.386,0,0,22.386,0,50s22.386,50,50,50s50-22.386,50-50
	S77.614,0,50,0z M67.359,80.205c-4.934,2.826-10.641,4.488-16.711,4.611c-0.215,0-0.432,0-0.648,0
	c-7.016,0-13.547-2.068-19.021-5.639c-9.559-6.219-15.885-17.006-15.885-29.27c0-12.262,6.326-23.051,15.885-29.27
	C36.453,17.07,42.984,15.002,50,15.002c0.217,0,0.434,0,0.648,0c6.07,0.121,11.777,1.783,16.711,4.609
	c10.477,6.029,17.549,17.346,17.549,30.297C84.908,62.859,77.836,74.176,67.359,80.205z"/>
</svg>
