<?xml version="1.0" encoding="utf-8"?>
<!-- Generator: Adobe Illustrator 17.0.0, SVG Export Plug-In . SVG Version: 6.00 Build 0)  -->
<!DOCTYPE svg PUBLIC "-//W3C//DTD SVG 1.1 Tiny//EN" "http://www.w3.org/Graphics/SVG/1.1/DTD/svg11-tiny.dtd">
<svg version="1.1" baseProfile="tiny" id="Layer_1" xmlns="http://www.w3.org/2000/svg" xmlns:xlink="http://www.w3.org/1999/xlink"
	 x="0px" y="0px" width="100px" height="100px" viewBox="0 0 100 100" overflow="visible" xml:space="preserve">
<path fill="#231F20" d="M50,0C22.386,0,0,22.386,0,50s22.386,50,50,50s50-22.386,50-50S77.614,0,50,0z M49.156,15.813h1.689
	c6.818,0.169,12.904,2.14,18.256,5.974c-5.521-1.467-11.889,0.674-19.1,6.479c-7.214-5.805-13.581-7.946-19.103-6.479
	C36.252,17.953,42.337,15.982,49.156,15.813z M23.461,69.346c-4.396-5.578-6.65-12.002-6.818-19.328v-1.692
	c0.168-6.143,1.801-11.721,4.9-16.68c1.352-2.141,2.984-4.169,4.902-6.027v-0.057c0.51-0.508,1.07-1.016,1.637-1.521
	c0.168,0.057,0.338,0.111,0.506,0.169c4.732,1.745,9.354,5.128,13.861,10.029c-9.523,9.297-15.496,18.54-17.861,27.726
	C23.965,64.442,23.572,66.924,23.461,69.346z M73.556,72.728c-6.312,6.367-13.863,9.636-22.709,9.803h-1.689
	c-8.848-0.167-16.4-3.436-22.711-9.803c-0.395-0.395-0.844-0.846-1.238-1.297c0.055-0.226,0.17-0.449,0.225-0.675
	c0.057-0.283,0.17-0.565,0.281-0.791c3.27-9.128,10.031-17.862,20.344-26.146c1.236-1.071,2.533-2.086,3.943-3.098
	c1.406,1.013,2.703,2.027,3.998,3.098h0.057v0.058c9.637,7.831,16.174,15.946,19.668,24.399c0,0.056,0,0.168,0.055,0.225
	c0.17,0.506,0.395,1.016,0.566,1.521c0.053,0.226,0.166,0.451,0.223,0.734c0.057,0.226,0.17,0.449,0.225,0.675
	C74.399,71.882,73.95,72.333,73.556,72.728z M83.359,50.017c-0.17,7.268-2.367,13.691-6.705,19.271
	c-0.17-2.423-0.508-4.848-1.127-7.27c-2.423-9.183-8.396-18.424-17.918-27.723l-0.059-0.056c4.51-4.901,9.131-8.284,13.861-10.029
	c0.17-0.058,0.34-0.112,0.508-0.169c0.564,0.506,1.127,1.014,1.635,1.521l0.057,0.057c1.859,1.858,3.492,3.887,4.846,6.027
	c3.098,4.959,4.732,10.537,4.902,16.68V50.017z"/>
</svg>
