<?xml version="1.0" encoding="utf-8"?>
<!-- Generator: Adobe Illustrator 15.0.0, SVG Export Plug-In . SVG Version: 6.00 Build 0)  -->
<!DOCTYPE svg PUBLIC "-//W3C//DTD SVG 1.1//EN" "http://www.w3.org/Graphics/SVG/1.1/DTD/svg11.dtd">
<svg version="1.1" id="Layer_1" xmlns="http://www.w3.org/2000/svg" xmlns:xlink="http://www.w3.org/1999/xlink" x="0px" y="0px"
	 width="100px" height="100px" viewBox="0 0 100 100" enable-background="new 0 0 100 100" xml:space="preserve">
<path fill="#231F20" d="M0,0v100h100V0H0z M50.002,40.721c1.406,1.013,2.703,2.027,3.998,3.098h0.057v0.058
	c9.637,7.831,16.174,15.946,19.668,24.399c0,0.056,0,0.168,0.055,0.225c0.17,0.506,0.395,1.016,0.566,1.521
	c0.053,0.226,0.166,0.451,0.223,0.734c0.057,0.226,0.17,0.449,0.225,0.675c-0.395,0.451-0.844,0.902-1.238,1.297
	c-6.312,6.367-13.863,9.636-22.709,9.803h-1.689c-8.848-0.167-16.4-3.436-22.711-9.803c-0.395-0.395-0.844-0.846-1.238-1.297
	c0.055-0.226,0.17-0.449,0.225-0.675c0.057-0.283,0.17-0.565,0.281-0.791c3.27-9.128,10.031-17.862,20.344-26.146
	C47.295,42.748,48.592,41.733,50.002,40.721z M30.898,21.787c5.354-3.834,11.439-5.805,18.258-5.974h1.689
	c6.818,0.169,12.904,2.14,18.256,5.974c-5.521-1.467-11.889,0.674-19.1,6.479C42.787,22.461,36.42,20.32,30.898,21.787z
	 M57.609,34.295l-0.059-0.056c4.51-4.901,9.131-8.284,13.861-10.029c0.17-0.058,0.34-0.112,0.508-0.169
	c0.564,0.506,1.127,1.014,1.635,1.521l0.057,0.057c1.859,1.858,3.492,3.887,4.846,6.027c3.098,4.959,4.732,10.537,4.902,16.68v1.691
	c-0.17,7.268-2.367,13.691-6.705,19.271c-0.17-2.423-0.508-4.848-1.127-7.27C73.104,52.835,67.131,43.594,57.609,34.295z
	 M16.643,48.326c0.168-6.143,1.801-11.721,4.9-16.68c1.352-2.141,2.984-4.169,4.902-6.027v-0.057c0.51-0.508,1.07-1.016,1.637-1.521
	c0.168,0.057,0.338,0.111,0.506,0.169c4.732,1.745,9.354,5.128,13.861,10.029c-9.523,9.297-15.496,18.54-17.861,27.726
	c-0.623,2.477-1.016,4.959-1.127,7.381c-4.396-5.578-6.65-12.002-6.818-19.328V48.326z"/>
</svg>
