<?xml version="1.0" encoding="utf-8"?>
<!-- Generator: Adobe Illustrator 17.0.0, SVG Export Plug-In . SVG Version: 6.00 Build 0)  -->
<!DOCTYPE svg PUBLIC "-//W3C//DTD SVG 1.1 Tiny//EN" "http://www.w3.org/Graphics/SVG/1.1/DTD/svg11-tiny.dtd">
<svg version="1.1" baseProfile="tiny" id="Layer_1" xmlns="http://www.w3.org/2000/svg" xmlns:xlink="http://www.w3.org/1999/xlink"
	 x="0px" y="0px" width="100px" height="100px" viewBox="0 0 100 100" xml:space="preserve">
<path fill="#231F20" d="M50,0C22.386,0,0,22.386,0,50s22.386,50,50,50s50-22.386,50-50S77.614,0,50,0z M50,78.758
	c-16.362,0-29.625-13.265-29.625-29.625c0-16.362,13.263-29.625,29.625-29.625s29.624,13.264,29.624,29.625
	C79.624,65.493,66.362,78.758,50,78.758z M29.17,52.992h0.088c0.863,10.708,9.809,19.13,20.74,19.13
	c10.933,0,19.88-8.422,20.745-19.13h0.086v-7.718H29.17V52.992z M31.5,47.42H68v4.75H31.5V47.42z M57.562,32.932
	c2.13,0,3.857,1.727,3.857,3.857s-1.727,3.857-3.857,3.857s-3.857-1.727-3.857-3.857S55.432,32.932,57.562,32.932z M42.903,32.932
	c2.13,0,3.857,1.727,3.857,3.857s-1.727,3.857-3.857,3.857s-3.857-1.727-3.857-3.857S40.773,32.932,42.903,32.932z"/>
</svg>
