<?xml version="1.0" encoding="utf-8"?>
<!-- Generator: Adobe Illustrator 17.0.0, SVG Export Plug-In . SVG Version: 6.00 Build 0)  -->
<!DOCTYPE svg PUBLIC "-//W3C//DTD SVG 1.1 Tiny//EN" "http://www.w3.org/Graphics/SVG/1.1/DTD/svg11-tiny.dtd">
<svg version="1.1" baseProfile="tiny" id="Layer_1" xmlns="http://www.w3.org/2000/svg" xmlns:xlink="http://www.w3.org/1999/xlink"
	 x="0px" y="0px" width="100px" height="100px" viewBox="0 0 100 100" xml:space="preserve">
<path fill="#231F20" d="M45.816,65.352c0,1.059-0.061,1.812-0.18,2.266c-0.217,0.787-0.652,1.18-1.303,1.18
	c-0.604,0-1.006-0.361-1.205-1.086c-0.113-0.42-0.17-1.117-0.17-2.094V53.721h-3.131v14.303c0.001,2.927,1.044,4.39,3.126,4.39
	c1.293,0,2.273-0.766,2.943-2.295v1.811h3.182V53.721h-3.262C45.816,53.721,45.816,65.352,45.816,65.352z M50.552,35.974
	c0.865,0,1.393-0.701,1.586-2.102c0.041-0.307,0.061-1.451,0.061-3.432v-1.787c0-1.855-0.025-2.973-0.072-3.352
	c-0.203-1.391-0.717-2.086-1.549-2.086c-0.807,0-1.311,0.611-1.514,1.834c-0.062,0.391-0.096,1.418-0.096,3.084v1.691
	c0,2.268,0.012,3.5,0.037,3.699C49.173,35.158,49.689,35.974,50.552,35.974z M57.872,53.237c-1.293,0-2.211,0.674-2.752,2.025
	v-7.578h-3.244V71.93h3.082v-1.902c0.525,1.59,1.473,2.386,2.845,2.386c1.646,0,2.736-1.145,3.27-3.43
	c0.281-1.217,0.422-3.242,0.422-6.072c0-2.916-0.127-4.967-0.387-6.152C60.598,54.41,59.52,53.237,57.872,53.237z M58.157,66.451
	c-0.17,1.658-0.648,2.488-1.438,2.488c-0.848,0-1.375-0.678-1.586-2.029c-0.074-0.443-0.109-1.549-0.109-3.322
	c-0.001-2.299,0.019-3.637,0.06-4.014c0.203-1.867,0.748-2.803,1.635-2.803c0.797,0,1.279,0.836,1.451,2.504
	c0.031,0.293,0.049,1.496,0.049,3.604C58.219,64.914,58.198,66.106,58.157,66.451z M26.748,51.686h4.004V71.93h3.471V51.686h4.002
	v-4.002H26.748V51.686z M68.491,53.235c-1.791,0-3.09,0.635-3.898,1.904c-0.492,0.775-0.811,1.908-0.957,3.396
	c-0.072,0.734-0.107,1.967-0.107,3.697c0,2.15,0.035,3.613,0.107,4.391c0.163,1.773,0.538,3.121,1.13,4.045
	c0.74,1.164,1.955,1.746,3.643,1.746c1.631,0,2.834-0.482,3.607-1.439c0.775-0.961,1.162-2.488,1.162-4.586
	c0-0.084-0.004-0.203-0.012-0.354c-0.008-0.152-0.012-0.27-0.012-0.354h-3.051c0,2.379-0.545,3.568-1.635,3.568
	c-0.734,0-1.219-0.594-1.453-1.781c-0.113-0.576-0.17-1.543-0.17-2.898c0-0.576,0.014-0.965,0.037-1.164h6.367v-1.383
	c0-3.377-0.322-5.617-0.967-6.729C71.483,53.921,70.22,53.235,68.491,53.235z M69.995,60.517h-3.141c0-0.166-0.004-0.34-0.016-0.518
	l-0.016-0.252c-0.049-1.11,0.073-1.964,0.364-2.559c0.24-0.48,0.65-0.723,1.223-0.723c0.686,0,1.143,0.352,1.367,1.053
	c0.146,0.439,0.219,1.182,0.219,2.229V60.517z M50,0C22.386,0,0,22.386,0,50s22.386,50,50,50s50-22.386,50-50S77.614,0,50,0z
	 M57.933,20.424h3.15v11.963c0,0.982,0.057,1.684,0.17,2.105c0.201,0.73,0.605,1.094,1.211,1.094c0.654,0,1.092-0.396,1.311-1.188
	c0.121-0.455,0.182-1.213,0.182-2.279V20.424h3.279v18.311h-3.197v-1.818c-0.676,1.536-1.662,2.306-2.961,2.306
	c-2.096,0-3.145-1.473-3.145-4.416C57.933,34.807,57.933,20.424,57.933,20.424z M46.344,22.88c0.713-1.963,2.123-2.943,4.234-2.943
	c2.109,0,3.525,0.98,4.246,2.943c0.481,1.306,0.719,3.542,0.719,6.708c0,3.162-0.238,5.398-0.719,6.707
	c-0.721,1.951-2.137,2.928-4.246,2.928c-2.111,0-3.521-0.982-4.234-2.943c-0.48-1.309-0.721-3.539-0.721-6.691
	C45.623,26.435,45.863,24.198,46.344,22.88z M35.019,14.352l2.836,9.172l2.801-9.172h3.764l-4.83,14.045v10.338h-3.523V28.396
	l-4.921-14.044H35.019z M78.882,69.949c0,5.355-4.342,9.697-9.695,9.697H30.812c-5.354,0-9.695-4.342-9.695-9.697V51.217
	c0-5.355,4.342-9.695,9.695-9.695h38.375c5.354,0,9.695,4.34,9.695,9.695C78.882,51.217,78.882,69.949,78.882,69.949z"/>
</svg>
