<?xml version="1.0" encoding="utf-8"?>
<!-- Generator: Adobe Illustrator 15.0.0, SVG Export Plug-In . SVG Version: 6.00 Build 0)  -->
<!DOCTYPE svg PUBLIC "-//W3C//DTD SVG 1.1//EN" "http://www.w3.org/Graphics/SVG/1.1/DTD/svg11.dtd">
<svg version="1.1" id="Layer_1" xmlns="http://www.w3.org/2000/svg" xmlns:xlink="http://www.w3.org/1999/xlink" x="0px" y="0px"
	 width="100px" height="100px" viewBox="0 0 100 100" enable-background="new 0 0 100 100" xml:space="preserve">
<path fill="#231F20" d="M0,0v100h100V0H0z M26.922,66.114c0-1.67,0-3.34,0-5.01c0,0,0.072-0.857,0.517-1.383
	c0-0.001,0-0.001,0.001-0.002c7.967-9.415,15.934-18.83,23.9-28.246c-12.243,2.457-15.378-0.377-16.059-1.318
	c-0.016-0.02-0.028-0.043-0.044-0.064c-0.09-0.135-0.123-0.219-0.123-0.219l0.002-0.001c-0.3-0.694-0.232-1.849-0.178-2.396
	c0.243-2.453,1.572-4.75,3.003-6.704c0.216-0.295,0.459-0.57,0.688-0.856c0.29-0.247,0.839-0.521,1.657-0.097
	c0.564,0.31,1.166,0.617,1.269,0.658c2.841,1.132,6.025,1.421,9.052,1.56c5.439,0.25,10.923-0.317,16.26-1.404l0.002,0.006
	c0,0,1.246-0.288,1.106,0.914c-0.201,1.734-0.401,3.469-0.601,5.203c-0.059,0.505-1.22,1.443-1.534,1.809
	c-3.291,3.82-6.581,7.639-9.872,11.458c-3.866,4.488-7.733,8.976-11.6,13.465c-1.229,1.426-2.458,2.853-3.688,4.278
	c-0.894,1.038-0.936,1.095-0.936,2.566C43,60.184,46.24,61.61,49,63.337v-0.002c0,0,6.152,4.011,10.019,5.303
	c4.108,1.127,8.591,1.193,11.805-1.4c1.201,5.664-1.699,14.397-8.912,13.544c-3.584-0.425-7.077-2.315-10.138-4.117
	c-3.228-1.9-5.965-4.632-9.278-6.338c-4.312-2.222-8.292-2.35-12.96-2.35c-0.626,0-1.253,0-1.879,0
	c-0.214-0.028-0.587-0.197-0.742-1.038C26.916,66.544,26.922,66.175,26.922,66.114z"/>
</svg>
